OctagonVariable-HROT-30.ufo
<glyph name="plus" format="2">
  <advance width="411"/>
  <unicode hex="002B"/>
  <outline>
    <contour>
      <point x="222" y="113" type="line"/>
      <point x="240" y="113" type="line"/>
      <point x="240" y="489" type="line"/>
      <point x="222" y="489" type="line"/>
    </contour>
    <contour>
      <point x="15" y="264" type="line"/>
      <point x="32" y="264" type="line"/>
      <point x="32" y="349" type="line"/>
      <point x="15" y="349" type="line"/>
    </contour>
    <contour>
      <point x="31" y="264" type="line"/>
      <point x="61" y="301" type="line"/>
      <point x="48" y="311" type="line"/>
      <point x="17" y="274" type="line"/>
    </contour>
    <contour>
      <point x="149" y="113" type="line"/>
      <point x="240" y="113" type="line"/>
      <point x="240" y="131" type="line"/>
      <point x="149" y="131" type="line"/>
    </contour>
    <contour>
      <point x="154" y="113" type="line"/>
      <point x="179" y="164" type="line"/>
      <point x="168" y="179" type="line"/>
      <point x="146" y="129" type="line"/>
    </contour>
    <contour>
      <point x="15" y="264" type="line"/>
      <point x="148" y="264" type="line"/>
      <point x="148" y="281" type="line"/>
      <point x="15" y="281" type="line"/>
    </contour>
    <contour>
      <point x="48" y="302" type="line"/>
      <point x="61" y="312" type="line"/>
      <point x="31" y="349" type="line"/>
      <point x="17" y="339" type="line"/>
    </contour>
    <contour>
      <point x="226" y="114" type="line"/>
      <point x="239" y="126" type="line"/>
      <point x="178" y="173" type="line"/>
      <point x="167" y="160" type="line"/>
    </contour>
    <contour>
      <point x="43" y="298" type="line"/>
      <point x="148" y="298" type="line"/>
      <point x="148" y="315" type="line"/>
      <point x="43" y="315" type="line"/>
    </contour>
    <contour>
      <point x="15" y="332" type="line"/>
      <point x="148" y="332" type="line"/>
      <point x="148" y="349" type="line"/>
      <point x="15" y="349" type="line"/>
    </contour>
    <contour>
      <point x="141" y="113" type="line"/>
      <point x="159" y="113" type="line"/>
      <point x="159" y="489" type="line"/>
      <point x="141" y="489" type="line"/>
    </contour>
    <contour>
      <point x="179" y="157" type="line"/>
      <point x="179" y="449" type="line"/>
      <point x="164" y="449" type="line"/>
      <point x="164" y="157" type="line"/>
    </contour>
    <contour>
      <point x="237" y="265" type="line"/>
      <point x="396" y="265" type="line"/>
      <point x="396" y="282" type="line"/>
      <point x="237" y="282" type="line"/>
    </contour>
    <contour>
      <point x="237" y="299" type="line"/>
      <point x="318" y="299" type="line"/>
      <point x="318" y="316" type="line"/>
      <point x="237" y="316" type="line"/>
    </contour>
    <contour>
      <point x="167" y="439" type="line"/>
      <point x="178" y="452" type="line"/>
      <point x="155" y="501" type="line"/>
      <point x="142" y="489" type="line"/>
    </contour>
    <contour>
      <point x="380" y="265" type="line"/>
      <point x="394" y="275" type="line"/>
      <point x="313" y="312" type="line"/>
      <point x="300" y="302" type="line"/>
    </contour>
    <contour>
      <point x="237" y="333" type="line"/>
      <point x="396" y="333" type="line"/>
      <point x="396" y="350" type="line"/>
      <point x="237" y="350" type="line"/>
    </contour>
    <contour>
      <point x="171" y="436" type="line"/>
      <point x="233" y="486" type="line"/>
      <point x="227" y="502" type="line"/>
      <point x="164" y="451" type="line"/>
    </contour>
    <contour>
      <point x="141" y="484" type="line"/>
      <point x="240" y="484" type="line"/>
      <point x="240" y="502" type="line"/>
      <point x="141" y="502" type="line"/>
    </contour>
    <contour>
      <point x="313" y="303" type="line"/>
      <point x="394" y="340" type="line"/>
      <point x="380" y="350" type="line"/>
      <point x="300" y="313" type="line"/>
    </contour>
    <contour>
      <point x="379" y="265" type="line"/>
      <point x="396" y="265" type="line"/>
      <point x="396" y="350" type="line"/>
      <point x="379" y="350" type="line"/>
    </contour>
  </outline>
</glyph>
<glyph name="hyphen" format="2">
  <advance width="241"/>
  <unicode hex="002D"/>
  <outline>
    <contour>
      <point x="15" y="224" type="line"/>
      <point x="220" y="224" type="line"/>
      <point x="220" y="242" type="line"/>
      <point x="15" y="242" type="line"/>
    </contour>
    <contour>
      <point x="29" y="224" type="line"/>
      <point x="67" y="300" type="line"/>
      <point x="51" y="313" type="line"/>
      <point x="15" y="238" type="line"/>
    </contour>
    <contour>
      <point x="212" y="224" type="line"/>
      <point x="226" y="238" type="line"/>
      <point x="109" y="314" type="line"/>
      <point x="94" y="300" type="line"/>
    </contour>
    <contour>
      <point x="15" y="224" type="line"/>
      <point x="35" y="224" type="line"/>
      <point x="35" y="389" type="line"/>
      <point x="15" y="389" type="line"/>
    </contour>
    <contour>
      <point x="51" y="296" type="line"/>
      <point x="114" y="296" type="line"/>
      <point x="114" y="319" type="line"/>
      <point x="51" y="319" type="line"/>
    </contour>
    <contour>
      <point x="206" y="224" type="line"/>
      <point x="226" y="224" type="line"/>
      <point x="226" y="389" type="line"/>
      <point x="206" y="389" type="line"/>
    </contour>
    <contour>
      <point x="52" y="300" type="line"/>
      <point x="67" y="314" type="line"/>
      <point x="29" y="389" type="line"/>
      <point x="15" y="375" type="line"/>
    </contour>
    <contour>
      <point x="18" y="371" type="line"/>
      <point x="220" y="371" type="line"/>
      <point x="220" y="389" type="line"/>
      <point x="18" y="389" type="line"/>
    </contour>
    <contour>
      <point x="109" y="300" type="line"/>
      <point x="225" y="375" type="line"/>
      <point x="211" y="389" type="line"/>
      <point x="94" y="314" type="line"/>
    </contour>
  </outline>
</glyph>
<glyph name="period" format="2">
  <advance width="224"/>
  <unicode hex="002E"/>
  <outline>
    <contour>
      <point x="15" y="0" type="line"/>
      <point x="209" y="0" type="line"/>
      <point x="209" y="19" type="line"/>
      <point x="15" y="19" type="line"/>
    </contour>
    <contour>
      <point x="30" y="0" type="line"/>
      <point x="56" y="86" type="line"/>
      <point x="44" y="104" type="line"/>
      <point x="15" y="15" type="line"/>
    </contour>
    <contour>
      <point x="194" y="0" type="line"/>
      <point x="209" y="15" type="line"/>
      <point x="59" y="105" type="line"/>
      <point x="47" y="87" type="line"/>
    </contour>
    <contour>
      <point x="15" y="0" type="line"/>
      <point x="34" y="0" type="line"/>
      <point x="34" y="194" type="line"/>
      <point x="15" y="194" type="line"/>
    </contour>
    <contour>
      <point x="44" y="89" type="line"/>
      <point x="60" y="89" type="line"/>
      <point x="60" y="105" type="line"/>
      <point x="44" y="105" type="line"/>
    </contour>
    <contour>
      <point x="190" y="0" type="line"/>
      <point x="209" y="0" type="line"/>
      <point x="209" y="194" type="line"/>
      <point x="190" y="194" type="line"/>
    </contour>
    <contour>
      <point x="45" y="90" type="line"/>
      <point x="57" y="108" type="line"/>
      <point x="30" y="194" type="line"/>
      <point x="15" y="179" type="line"/>
    </contour>
    <contour>
      <point x="19" y="175" type="line"/>
      <point x="209" y="175" type="line"/>
      <point x="209" y="194" type="line"/>
      <point x="19" y="194" type="line"/>
    </contour>
    <contour>
      <point x="59" y="90" type="line"/>
      <point x="208" y="179" type="line"/>
      <point x="193" y="194" type="line"/>
      <point x="47" y="108" type="line"/>
    </contour>
  </outline>
</glyph>
<glyph name="one" format="2">
  <advance width="380"/>
  <unicode hex="0031"/>
  <outline>
    <contour>
      <point x="170" y="0" type="line"/>
      <point x="370" y="0" type="line"/>
      <point x="370" y="20" type="line"/>
      <point x="170" y="20" type="line"/>
    </contour>
    <contour>
      <point x="183" y="0" type="line"/>
      <point x="242" y="112" type="line"/>
      <point x="229" y="125" type="line"/>
      <point x="170" y="13" type="line"/>
    </contour>
    <contour>
      <point x="357" y="0" type="line"/>
      <point x="370" y="13" type="line"/>
      <point x="245" y="125" type="line"/>
      <point x="232" y="112" type="line"/>
    </contour>
    <contour>
      <point x="170" y="3" type="line"/>
      <point x="190" y="3" type="line"/>
      <point x="190" y="350" type="line"/>
      <point x="170" y="350" type="line"/>
    </contour>
    <contour>
      <point x="227" y="110" type="line"/>
      <point x="247" y="110" type="line"/>
      <point x="247" y="530" type="line"/>
      <point x="227" y="530" type="line"/>
    </contour>
    <contour>
      <point x="350" y="0" type="line"/>
      <point x="370" y="0" type="line"/>
      <point x="370" y="600" type="line"/>
      <point x="350" y="600" type="line"/>
    </contour>
    <contour>
      <point x="229" y="515" type="line"/>
      <point x="242" y="528" type="line"/>
      <point x="153" y="600" type="line"/>
      <point x="140" y="587" type="line"/>
    </contour>
    <contour>
      <point x="144" y="580" type="line"/>
      <point x="370" y="580" type="line"/>
      <point x="370" y="600" type="line"/>
      <point x="144" y="600" type="line"/>
    </contour>
    <contour>
      <point x="244" y="515" type="line"/>
      <point x="369" y="587" type="line"/>
      <point x="356" y="600" type="line"/>
      <point x="231" y="528" type="line"/>
    </contour>
    <contour>
      <point x="170" y="570" type="line"/>
      <point x="93" y="427" type="line"/>
      <point x="116" y="427" type="line"/>
      <point x="186" y="557" type="line"/>
    </contour>
    <contour>
      <point x="228" y="478" type="line"/>
      <point x="167" y="340" type="line"/>
      <point x="186" y="334" type="line"/>
      <point x="248" y="473" type="line"/>
    </contour>
    <contour>
      <point x="144" y="600" type="line"/>
      <point x="5" y="334" type="line"/>
      <point x="25" y="334" type="line"/>
      <point x="164" y="595" type="line"/>
    </contour>
    <contour>
      <point x="111" y="438" type="line"/>
      <point x="97" y="424" type="line"/>
      <point x="176" y="341" type="line"/>
      <point x="188" y="354" type="line"/>
    </contour>
    <contour>
      <point x="106" y="441" type="line"/>
      <point x="25" y="353" type="line"/>
      <point x="36" y="338" type="line"/>
      <point x="117" y="425" type="line"/>
    </contour>
    <contour>
      <point x="186" y="354" type="line"/>
      <point x="22" y="354" type="line"/>
      <point x="22" y="334" type="line"/>
      <point x="186" y="334" type="line"/>
    </contour>
  </outline>
</glyph>
<glyph name="two" format="2">
  <advance width="456"/>
  <unicode hex="0032"/>
  <outline>
    <contour>
      <point x="124" y="236" type="line"/>
      <point x="295" y="394" type="line"/>
      <point x="285" y="409" type="line"/>
      <point x="112" y="249" type="line"/>
    </contour>
    <contour>
      <point x="21" y="-1" type="line"/>
      <point x="41" y="-1" type="line"/>
      <point x="41" y="149" type="line"/>
      <point x="21" y="149" type="line"/>
    </contour>
    <contour>
      <point x="49" y="7" type="line"/>
      <point x="65" y="106" type="line"/>
      <point x="49" y="118" type="line"/>
      <point x="31" y="17" type="line"/>
    </contour>
    <contour>
      <point x="50" y="100" type="line"/>
      <point x="62" y="115" type="line"/>
      <point x="38" y="159" type="line"/>
      <point x="26" y="142" type="line"/>
    </contour>
    <contour>
      <point x="26" y="-1" type="line"/>
      <point x="446" y="-1" type="line"/>
      <point x="446" y="19" type="line"/>
      <point x="26" y="19" type="line"/>
    </contour>
    <contour>
      <point x="40" y="141" type="line"/>
      <point x="110" y="274" type="line"/>
      <point x="88" y="279" type="line"/>
      <point x="21" y="149" type="line"/>
    </contour>
    <contour>
      <point x="48" y="106" type="line"/>
      <point x="69" y="106" type="line"/>
      <point x="129" y="238" type="line"/>
      <point x="111" y="246" type="line"/>
    </contour>
    <contour>
      <point x="65" y="103" type="line"/>
      <point x="224" y="203" type="line"/>
      <point x="211" y="217" type="line"/>
      <point x="55" y="118" type="line"/>
    </contour>
    <contour>
      <point x="50" y="100" type="line"/>
      <point x="294" y="100" type="line"/>
      <point x="294" y="120" type="line"/>
      <point x="50" y="120" type="line"/>
    </contour>
    <contour>
      <point x="116" y="232" type="line"/>
      <point x="126" y="252" type="line"/>
      <point x="102" y="283" type="line"/>
      <point x="90" y="266" type="line"/>
    </contour>
    <contour>
      <point x="209" y="200" type="line"/>
      <point x="226" y="214" type="line"/>
      <point x="124" y="254" type="line"/>
      <point x="118" y="236" type="line"/>
    </contour>
    <contour>
      <point x="10" y="381" type="line"/>
      <point x="28" y="391" type="line"/>
      <point x="28" y="493" type="line"/>
      <point x="10" y="496" type="line"/>
    </contour>
    <contour>
      <point x="422" y="13" type="line"/>
      <point x="435" y="25" type="line"/>
      <point x="289" y="119" type="line"/>
      <point x="275" y="106" type="line"/>
    </contour>
    <contour>
      <point x="10" y="381" type="line"/>
      <point x="184" y="381" type="line"/>
      <point x="184" y="401" type="line"/>
      <point x="10" y="401" type="line"/>
    </contour>
    <contour>
      <point x="104" y="268" type="line"/>
      <point x="253" y="393" type="line"/>
      <point x="244" y="409" type="line"/>
      <point x="88" y="279" type="line"/>
    </contour>
    <contour>
      <point x="219" y="202" type="line"/>
      <point x="336" y="253" type="line"/>
      <point x="331" y="270" type="line"/>
      <point x="209" y="217" type="line"/>
    </contour>
    <contour>
      <point x="19" y="485" type="line"/>
      <point x="47" y="462" type="line"/>
      <point x="170" y="429" type="line"/>
      <point x="177" y="446" type="line"/>
      <point x="61" y="478" type="line"/>
      <point x="28" y="502" type="line"/>
    </contour>
    <contour>
      <point x="211" y="198" type="line"/>
      <point x="441" y="198" type="line"/>
      <point x="441" y="215" type="line"/>
      <point x="211" y="215" type="line"/>
    </contour>
    <contour>
      <point x="290" y="101" type="line"/>
      <point x="443" y="205" type="line"/>
      <point x="428" y="215" type="line"/>
      <point x="276" y="112" type="line"/>
    </contour>
    <contour>
      <point x="426" y="10" type="line"/>
      <point x="446" y="10" type="line"/>
      <point x="446" y="215" type="line"/>
      <point x="426" y="215" type="line"/>
    </contour>
    <contour>
      <point x="184" y="381" type="line"/>
      <point x="184" y="444" type="line"/>
      <point x="166" y="444" type="line"/>
      <point x="166" y="391" type="line"/>
    </contour>
    <contour>
      <point x="20" y="478" type="line"/>
      <point x="122" y="585" type="line"/>
      <point x="109" y="600" type="line"/>
      <point x="10" y="496" type="line"/>
    </contour>
    <contour>
      <point x="60" y="462" type="line"/>
      <point x="126" y="526" type="line"/>
      <point x="114" y="542" type="line"/>
      <point x="46" y="477" type="line"/>
    </contour>
    <contour>
      <point x="177" y="429" type="line"/>
      <point x="212" y="452" type="line"/>
      <point x="201" y="467" type="line"/>
      <point x="166" y="444" type="line"/>
    </contour>
    <contour>
      <point x="201" y="446" type="line"/>
      <point x="225" y="446" type="line"/>
      <point x="225" y="467" type="line"/>
      <point x="201" y="467" type="line"/>
    </contour>
    <contour>
      <point x="200" y="446" type="line"/>
      <point x="217" y="453" type="line"/>
      <point x="127" y="535" type="line"/>
      <point x="111" y="526" type="line"/>
    </contour>
    <contour>
      <point x="234" y="394" type="line"/>
      <point x="252" y="394" type="line"/>
      <point x="252" y="448" type="line"/>
      <point x="234" y="448" type="line"/>
    </contour>
    <contour>
      <point x="322" y="261" type="line"/>
      <point x="340" y="261" type="line"/>
      <point x="301" y="407" type="line"/>
      <point x="283" y="407" type="line"/>
    </contour>
    <contour>
      <point x="336" y="253" type="line"/>
      <point x="441" y="351" type="line"/>
      <point x="430" y="363" type="line"/>
      <point x="323" y="264" type="line"/>
    </contour>
    <contour>
      <point x="240" y="432" type="line"/>
      <point x="251" y="447" type="line"/>
      <point x="225" y="467" type="line"/>
      <point x="215" y="452" type="line"/>
    </contour>
    <contour>
      <point x="113" y="526" type="line"/>
      <point x="130" y="536" type="line"/>
      <point x="121" y="595" type="line"/>
      <point x="104" y="584" type="line"/>
    </contour>
    <contour>
      <point x="238" y="389" type="line"/>
      <point x="293" y="400" type="line"/>
      <point x="293" y="418" type="line"/>
      <point x="238" y="408" type="line"/>
    </contour>
    <contour>
      <point x="235" y="449" type="line"/>
      <point x="240" y="533" type="line"/>
      <point x="222" y="539" type="line"/>
      <point x="216" y="455" type="line"/>
    </contour>
    <contour>
      <point x="120" y="524" type="line"/>
      <point x="233" y="524" type="line"/>
      <point x="235" y="544" type="line"/>
      <point x="120" y="544" type="line"/>
    </contour>
    <contour>
      <point x="236" y="429" type="line"/>
      <point x="295" y="473" type="line"/>
      <point x="291" y="490" type="line"/>
      <point x="233" y="446" type="line"/>
    </contour>
    <contour>
      <point x="428" y="349" type="line"/>
      <point x="434" y="366" type="line"/>
      <point x="294" y="419" type="line"/>
      <point x="288" y="401" type="line"/>
    </contour>
    <contour>
      <point x="285" y="404" type="line"/>
      <point x="303" y="404" type="line"/>
      <point x="303" y="485" type="line"/>
      <point x="285" y="485" type="line"/>
    </contour>
    <contour>
      <point x="112" y="580" type="line"/>
      <point x="335" y="580" type="line"/>
      <point x="335" y="600" type="line"/>
      <point x="109" y="600" type="line"/>
    </contour>
    <contour>
      <point x="295" y="470" type="line"/>
      <point x="307" y="485" type="line"/>
      <point x="235" y="544" type="line"/>
      <point x="223" y="529" type="line"/>
    </contour>
    <contour>
      <point x="232" y="527" type="line"/>
      <point x="342" y="582" type="line"/>
      <point x="328" y="595" type="line"/>
      <point x="217" y="540" type="line"/>
    </contour>
    <contour>
      <point x="423" y="351" type="line"/>
      <point x="441" y="351" type="line"/>
      <point x="441" y="515" type="line"/>
      <point x="423" y="515" type="line"/>
    </contour>
    <contour>
      <point x="294" y="473" type="line"/>
      <point x="435" y="499" type="line"/>
      <point x="431" y="517" type="line"/>
      <point x="291" y="491" type="line"/>
    </contour>
    <contour>
      <point x="430" y="499" type="line"/>
      <point x="441" y="515" type="line"/>
      <point x="335" y="600" type="line"/>
      <point x="323" y="584" type="line"/>
    </contour>
  </outline>
</glyph>
<glyph name="six" format="2">
  <advance width="471"/>
  <unicode hex="0036"/>
  <outline>
    <contour>
      <point x="25" y="293" type="line"/>
      <point x="201" y="600" type="line"/>
      <point x="181" y="600" type="line"/>
      <point x="10" y="302" type="line"/>
    </contour>
    <contour>
      <point x="119" y="-1" type="line"/>
      <point x="132" y="14" type="line"/>
      <point x="25" y="136" type="line"/>
      <point x="10" y="123" type="line"/>
    </contour>
    <contour>
      <point x="129" y="4" type="line"/>
      <point x="129" y="81" type="line"/>
      <point x="111" y="90" type="line"/>
      <point x="111" y="12" type="line"/>
    </contour>
    <contour>
      <point x="26" y="118" type="line"/>
      <point x="66" y="144" type="line"/>
      <point x="59" y="163" type="line"/>
      <point x="21" y="136" type="line"/>
    </contour>
    <contour>
      <point x="10" y="123" type="line"/>
      <point x="30" y="123" type="line"/>
      <point x="30" y="308" type="line"/>
      <point x="10" y="302" type="line"/>
    </contour>
    <contour>
      <point x="116" y="75" type="line"/>
      <point x="128" y="91" type="line"/>
      <point x="63" y="160" type="line"/>
      <point x="49" y="146" type="line"/>
    </contour>
    <contour>
      <point x="119" y="-1" type="line"/>
      <point x="345" y="-1" type="line"/>
      <point x="345" y="19" type="line"/>
      <point x="119" y="19" type="line"/>
    </contour>
    <contour>
      <point x="61" y="142" type="line"/>
      <point x="207" y="173" type="line"/>
      <point x="200" y="189" type="line"/>
      <point x="56" y="160" type="line"/>
    </contour>
    <contour>
      <point x="130" y="82" type="line"/>
      <point x="227" y="154" type="line"/>
      <point x="213" y="164" type="line"/>
      <point x="115" y="93" type="line"/>
    </contour>
    <contour>
      <point x="49" y="146" type="line"/>
      <point x="69" y="146" type="line"/>
      <point x="69" y="285" type="line"/>
      <point x="49" y="285" type="line"/>
    </contour>
    <contour>
      <point x="116" y="75" type="line"/>
      <point x="251" y="75" type="line"/>
      <point x="251" y="95" type="line"/>
      <point x="116" y="95" type="line"/>
    </contour>
    <contour>
      <point x="58" y="270" type="line"/>
      <point x="63" y="289" type="line"/>
      <point x="21" y="309" type="line"/>
      <point x="17" y="291" type="line"/>
    </contour>
    <contour>
      <point x="214" y="147" type="line"/>
      <point x="227" y="162" type="line"/>
      <point x="207" y="189" type="line"/>
      <point x="194" y="175" type="line"/>
    </contour>
    <contour>
      <point x="333" y="6" type="line"/>
      <point x="351" y="14" type="line"/>
      <point x="252" y="91" type="line"/>
      <point x="235" y="83" type="line"/>
    </contour>
    <contour>
      <point x="214" y="147" type="line"/>
      <point x="244" y="147" type="line"/>
      <point x="244" y="168" type="line"/>
      <point x="214" y="168" type="line"/>
    </contour>
    <contour>
      <point x="194" y="175" type="line"/>
      <point x="214" y="175" type="line"/>
      <point x="214" y="241" type="line"/>
      <point x="194" y="241" type="line"/>
    </contour>
    <contour>
      <point x="241" y="82" type="line"/>
      <point x="257" y="92" type="line"/>
      <point x="244" y="164" type="line"/>
      <point x="229" y="154" type="line"/>
    </contour>
    <contour>
      <point x="202" y="226" type="line"/>
      <point x="211" y="243" type="line"/>
      <point x="68" y="286" type="line"/>
      <point x="58" y="270" type="line"/>
    </contour>
    <contour>
      <point x="244" y="147" type="line"/>
      <point x="263" y="175" type="line"/>
      <point x="246" y="185" type="line"/>
      <point x="229" y="160" type="line"/>
    </contour>
    <contour>
      <point x="60" y="271" type="line"/>
      <point x="143" y="325" type="line"/>
      <point x="133" y="339" type="line"/>
      <point x="49" y="285" type="line"/>
    </contour>
    <contour>
      <point x="251" y="75" type="line"/>
      <point x="305" y="134" type="line"/>
      <point x="292" y="146" type="line"/>
      <point x="238" y="88" type="line"/>
    </contour>
    <contour>
      <point x="210" y="228" type="line"/>
      <point x="225" y="255" type="line"/>
      <point x="213" y="270" type="line"/>
      <point x="194" y="241" type="line"/>
    </contour>
    <contour>
      <point x="290" y="126" type="line"/>
      <point x="298" y="144" type="line"/>
      <point x="257" y="188" type="line"/>
      <point x="249" y="171" type="line"/>
    </contour>
    <contour>
      <point x="345" y="-1" type="line"/>
      <point x="461" y="104" type="line"/>
      <point x="450" y="120" type="line"/>
      <point x="333" y="15" type="line"/>
    </contour>
    <contour>
      <point x="243" y="175" type="line"/>
      <point x="263" y="175" type="line"/>
      <point x="263" y="242" type="line"/>
      <point x="243" y="242" type="line"/>
    </contour>
    <contour>
      <point x="212" y="253" type="line"/>
      <point x="228" y="263" type="line"/>
      <point x="140" y="333" type="line"/>
      <point x="122" y="324" type="line"/>
    </contour>
    <contour>
      <point x="213" y="249" type="line"/>
      <point x="243" y="249" type="line"/>
      <point x="243" y="270" type="line"/>
      <point x="213" y="270" type="line"/>
    </contour>
    <contour>
      <point x="249" y="228" type="line"/>
      <point x="263" y="242" type="line"/>
      <point x="243" y="270" type="line"/>
      <point x="230" y="254" type="line"/>
    </contour>
    <contour>
      <point x="450" y="99" type="line"/>
      <point x="454" y="117" type="line"/>
      <point x="297" y="147" type="line"/>
      <point x="292" y="128" type="line"/>
    </contour>
    <contour>
      <point x="133" y="319" type="line"/>
      <point x="224" y="319" type="line"/>
      <point x="224" y="339" type="line"/>
      <point x="133" y="339" type="line"/>
    </contour>
    <contour>
      <point x="253" y="253" type="line"/>
      <point x="234" y="322" type="line"/>
      <point x="211" y="333" type="line"/>
      <point x="232" y="264" type="line"/>
    </contour>
    <contour>
      <point x="257" y="227" type="line"/>
      <point x="295" y="273" type="line"/>
      <point x="288" y="290" type="line"/>
      <point x="248" y="243" type="line"/>
    </contour>
    <contour>
      <point x="285" y="134" type="line"/>
      <point x="305" y="134" type="line"/>
      <point x="305" y="290" type="line"/>
      <point x="285" y="290" type="line"/>
    </contour>
    <contour>
      <point x="67" y="277" type="line"/>
      <point x="209" y="528" type="line"/>
      <point x="190" y="534" type="line"/>
      <point x="50" y="284" type="line"/>
    </contour>
    <contour>
      <point x="145" y="323" type="line"/>
      <point x="259" y="393" type="line"/>
      <point x="239" y="403" type="line"/>
      <point x="133" y="339" type="line"/>
    </contour>
    <contour>
      <point x="293" y="275" type="line"/>
      <point x="305" y="290" type="line"/>
      <point x="224" y="339" type="line"/>
      <point x="212" y="324" type="line"/>
    </contour>
    <contour>
      <point x="441" y="104" type="line"/>
      <point x="461" y="104" type="line"/>
      <point x="461" y="301" type="line"/>
      <point x="441" y="301" type="line"/>
    </contour>
    <contour>
      <point x="230" y="324" type="line"/>
      <point x="342" y="384" type="line"/>
      <point x="328" y="395" type="line"/>
      <point x="214" y="333" type="line"/>
    </contour>
    <contour>
      <point x="239" y="383" type="line"/>
      <point x="337" y="383" type="line"/>
      <point x="337" y="403" type="line"/>
      <point x="239" y="403" type="line"/>
    </contour>
    <contour>
      <point x="297" y="274" type="line"/>
      <point x="448" y="285" type="line"/>
      <point x="441" y="304" type="line"/>
      <point x="291" y="293" type="line"/>
    </contour>
    <contour>
      <point x="451" y="286" type="line"/>
      <point x="461" y="301" type="line"/>
      <point x="337" y="403" type="line"/>
      <point x="325" y="388" type="line"/>
    </contour>
    <contour>
      <point x="189" y="515" type="line"/>
      <point x="203" y="526" type="line"/>
      <point x="190" y="592" type="line"/>
      <point x="176" y="579" type="line"/>
    </contour>
    <contour>
      <point x="239" y="403" type="line"/>
      <point x="253" y="391" type="line"/>
      <point x="387" y="600" type="line"/>
      <point x="362" y="600" type="line"/>
    </contour>
    <contour>
      <point x="196" y="512" type="line"/>
      <point x="367" y="579" type="line"/>
      <point x="358" y="596" type="line"/>
      <point x="190" y="529" type="line"/>
    </contour>
    <contour>
      <point x="184" y="578" type="line"/>
      <point x="366" y="578" type="line"/>
      <point x="366" y="600" type="line"/>
      <point x="184" y="600" type="line"/>
    </contour>
  </outline>
</glyph>
<glyph name="seven" format="2">
  <advance width="395"/>
  <unicode hex="0037"/>
  <outline>
    <contour>
      <point x="27" y="0" type="line"/>
      <point x="49" y="0" type="line"/>
      <point x="230" y="402" type="line"/>
      <point x="212" y="412" type="line"/>
    </contour>
    <contour>
      <point x="42" y="0" type="line"/>
      <point x="260" y="0" type="line"/>
      <point x="260" y="20" type="line"/>
      <point x="42" y="20" type="line"/>
    </contour>
    <contour>
      <point x="58" y="7" type="line"/>
      <point x="140" y="112" type="line"/>
      <point x="129" y="128" type="line"/>
      <point x="47" y="22" type="line"/>
    </contour>
    <contour>
      <point x="240" y="6" type="line"/>
      <point x="258" y="17" type="line"/>
      <point x="141" y="122" type="line"/>
      <point x="124" y="111" type="line"/>
    </contour>
    <contour>
      <point x="5" y="402" type="line"/>
      <point x="25" y="402" type="line"/>
      <point x="25" y="589" type="line"/>
      <point x="5" y="589" type="line"/>
    </contour>
    <contour>
      <point x="24" y="407" type="line"/>
      <point x="65" y="501" type="line"/>
      <point x="50" y="512" type="line"/>
      <point x="10" y="419" type="line"/>
    </contour>
    <contour>
      <point x="10" y="402" type="line"/>
      <point x="230" y="402" type="line"/>
      <point x="230" y="422" type="line"/>
      <point x="10" y="422" type="line"/>
    </contour>
    <contour>
      <point x="260" y="0" type="line"/>
      <point x="390" y="445" type="line"/>
      <point x="371" y="449" type="line"/>
      <point x="240" y="9" type="line"/>
    </contour>
    <contour>
      <point x="120" y="111" type="line"/>
      <point x="142" y="111" type="line"/>
      <point x="278" y="496" type="line"/>
      <point x="257" y="501" type="line"/>
    </contour>
    <contour>
      <point x="51" y="497" type="line"/>
      <point x="65" y="510" type="line"/>
      <point x="24" y="594" type="line"/>
      <point x="11" y="582" type="line"/>
    </contour>
    <contour>
      <point x="50" y="496" type="line"/>
      <point x="278" y="496" type="line"/>
      <point x="278" y="516" type="line"/>
      <point x="50" y="516" type="line"/>
    </contour>
    <contour>
      <point x="230" y="402" type="line"/>
      <point x="271" y="496" type="line"/>
      <point x="259" y="511" type="line"/>
      <point x="215" y="417" type="line"/>
    </contour>
    <contour>
      <point x="5" y="580" type="line"/>
      <point x="385" y="580" type="line"/>
      <point x="385" y="600" type="line"/>
      <point x="5" y="600" type="line"/>
    </contour>
    <contour>
      <point x="372" y="431" type="line"/>
      <point x="385" y="446" type="line"/>
      <point x="277" y="509" type="line"/>
      <point x="264" y="494" type="line"/>
    </contour>
    <contour>
      <point x="273" y="496" type="line"/>
      <point x="384" y="581" type="line"/>
      <point x="367" y="593" type="line"/>
      <point x="256" y="509" type="line"/>
    </contour>
    <contour>
      <point x="370" y="445" type="line"/>
      <point x="390" y="445" type="line"/>
      <point x="390" y="600" type="line"/>
      <point x="370" y="600" type="line"/>
    </contour>
  </outline>
</glyph>
<glyph name="eight" format="2">
  <advance width="446"/>
  <unicode hex="0038"/>
  <outline>
    <contour>
      <point x="258" y="291" type="line"/>
      <point x="436" y="381" type="line"/>
      <point x="425" y="397" type="line"/>
      <point x="251" y="309" type="line"/>
    </contour>
    <contour>
      <point x="119" y="-1" type="line"/>
      <point x="132" y="14" type="line"/>
      <point x="22" y="90" type="line"/>
      <point x="10" y="74" type="line"/>
    </contour>
    <contour>
      <point x="26" y="73" type="line"/>
      <point x="53" y="100" type="line"/>
      <point x="45" y="116" type="line"/>
      <point x="19" y="89" type="line"/>
    </contour>
    <contour>
      <point x="10" y="74" type="line"/>
      <point x="30" y="74" type="line"/>
      <point x="30" y="221" type="line"/>
      <point x="10" y="221" type="line"/>
    </contour>
    <contour>
      <point x="130" y="4" type="line"/>
      <point x="135" y="62" type="line"/>
      <point x="118" y="72" type="line"/>
      <point x="113" y="13" type="line"/>
    </contour>
    <contour>
      <point x="122" y="55" type="line"/>
      <point x="133" y="70" type="line"/>
      <point x="51" y="119" type="line"/>
      <point x="40" y="104" type="line"/>
    </contour>
    <contour>
      <point x="119" y="-1" type="line"/>
      <point x="317" y="-1" type="line"/>
      <point x="317" y="19" type="line"/>
      <point x="119" y="19" type="line"/>
    </contour>
    <contour>
      <point x="40" y="104" type="line"/>
      <point x="60" y="104" type="line"/>
      <point x="60" y="215" type="line"/>
      <point x="40" y="215" type="line"/>
    </contour>
    <contour>
      <point x="53" y="199" type="line"/>
      <point x="53" y="218" type="line"/>
      <point x="20" y="222" type="line"/>
      <point x="20" y="204" type="line"/>
    </contour>
    <contour>
      <point x="56" y="102" type="line"/>
      <point x="202" y="156" type="line"/>
      <point x="194" y="173" type="line"/>
      <point x="49" y="119" type="line"/>
    </contour>
    <contour>
      <point x="129" y="58" type="line"/>
      <point x="220" y="133" type="line"/>
      <point x="206" y="142" type="line"/>
      <point x="114" y="68" type="line"/>
    </contour>
    <contour>
      <point x="122" y="55" type="line"/>
      <point x="234" y="55" type="line"/>
      <point x="234" y="75" type="line"/>
      <point x="122" y="75" type="line"/>
    </contour>
    <contour>
      <point x="21" y="205" type="line"/>
      <point x="195" y="293" type="line"/>
      <point x="188" y="311" type="line"/>
      <point x="10" y="221" type="line"/>
    </contour>
    <contour>
      <point x="196" y="196" type="line"/>
      <point x="197" y="216" type="line"/>
      <point x="56" y="217" type="line"/>
      <point x="56" y="198" type="line"/>
    </contour>
    <contour>
      <point x="208" y="127" type="line"/>
      <point x="221" y="140" type="line"/>
      <point x="199" y="173" type="line"/>
      <point x="186" y="161" type="line"/>
    </contour>
    <contour>
      <point x="305" y="4" type="line"/>
      <point x="323" y="13" type="line"/>
      <point x="235" y="71" type="line"/>
      <point x="217" y="61" type="line"/>
    </contour>
    <contour>
      <point x="208" y="127" type="line"/>
      <point x="228" y="127" type="line"/>
      <point x="228" y="148" type="line"/>
      <point x="208" y="148" type="line"/>
    </contour>
    <contour>
      <point x="186" y="160" type="line"/>
      <point x="206" y="160" type="line"/>
      <point x="206" y="211" type="line"/>
      <point x="186" y="211" type="line"/>
    </contour>
    <contour>
      <point x="227" y="58" type="line"/>
      <point x="242" y="68" type="line"/>
      <point x="230" y="142" type="line"/>
      <point x="216" y="133" type="line"/>
    </contour>
    <contour>
      <point x="55" y="202" type="line"/>
      <point x="200" y="296" type="line"/>
      <point x="188" y="311" type="line"/>
      <point x="40" y="215" type="line"/>
    </contour>
    <contour>
      <point x="228" y="127" type="line"/>
      <point x="250" y="161" type="line"/>
      <point x="237" y="173" type="line"/>
      <point x="215" y="140" type="line"/>
    </contour>
    <contour>
      <point x="198" y="196" type="line"/>
      <point x="221" y="224" type="line"/>
      <point x="208" y="239" type="line"/>
      <point x="186" y="211" type="line"/>
    </contour>
    <contour>
      <point x="234" y="55" type="line"/>
      <point x="306" y="104" type="line"/>
      <point x="295" y="119" type="line"/>
      <point x="223" y="70" type="line"/>
    </contour>
    <contour>
      <point x="188" y="291" type="line"/>
      <point x="195" y="309" type="line"/>
      <point x="21" y="397" type="line"/>
      <point x="10" y="381" type="line"/>
    </contour>
    <contour>
      <point x="20" y="380" type="line"/>
      <point x="53" y="384" type="line"/>
      <point x="53" y="403" type="line"/>
      <point x="20" y="398" type="line"/>
    </contour>
    <contour>
      <point x="317" y="-1" type="line"/>
      <point x="436" y="74" type="line"/>
      <point x="424" y="90" type="line"/>
      <point x="304" y="14" type="line"/>
    </contour>
    <contour>
      <point x="10" y="381" type="line"/>
      <point x="30" y="381" type="line"/>
      <point x="30" y="528" type="line"/>
      <point x="10" y="528" type="line"/>
    </contour>
    <contour>
      <point x="230" y="160" type="line"/>
      <point x="250" y="160" type="line"/>
      <point x="250" y="211" type="line"/>
      <point x="230" y="211" type="line"/>
    </contour>
    <contour>
      <point x="203" y="222" type="line"/>
      <point x="221" y="230" type="line"/>
      <point x="202" y="304" type="line"/>
      <point x="187" y="297" type="line"/>
    </contour>
    <contour>
      <point x="208" y="219" type="line"/>
      <point x="228" y="219" type="line"/>
      <point x="228" y="239" type="line"/>
      <point x="208" y="239" type="line"/>
    </contour>
    <contour>
      <point x="290" y="102" type="line"/>
      <point x="297" y="119" type="line"/>
      <point x="242" y="173" type="line"/>
      <point x="234" y="156" type="line"/>
    </contour>
    <contour>
      <point x="188" y="291" type="line"/>
      <point x="200" y="306" type="line"/>
      <point x="55" y="400" type="line"/>
      <point x="40" y="387" type="line"/>
    </contour>
    <contour>
      <point x="238" y="196" type="line"/>
      <point x="250" y="211" type="line"/>
      <point x="228" y="239" type="line"/>
      <point x="215" y="224" type="line"/>
    </contour>
    <contour>
      <point x="420" y="73" type="line"/>
      <point x="427" y="89" type="line"/>
      <point x="301" y="116" type="line"/>
      <point x="293" y="100" type="line"/>
    </contour>
    <contour>
      <point x="40" y="387" type="line"/>
      <point x="60" y="387" type="line"/>
      <point x="60" y="498" type="line"/>
      <point x="40" y="498" type="line"/>
    </contour>
    <contour>
      <point x="233" y="222" type="line"/>
      <point x="259" y="297" type="line"/>
      <point x="244" y="304" type="line"/>
      <point x="215" y="230" type="line"/>
    </contour>
    <contour>
      <point x="240" y="196" type="line"/>
      <point x="290" y="198" type="line"/>
      <point x="290" y="217" type="line"/>
      <point x="239" y="216" type="line"/>
    </contour>
    <contour>
      <point x="188" y="291" type="line"/>
      <point x="258" y="291" type="line"/>
      <point x="258" y="311" type="line"/>
      <point x="188" y="311" type="line"/>
    </contour>
    <contour>
      <point x="56" y="385" type="line"/>
      <point x="197" y="384" type="line"/>
      <point x="196" y="404" type="line"/>
      <point x="56" y="404" type="line"/>
    </contour>
    <contour>
      <point x="202" y="298" type="line"/>
      <point x="221" y="372" type="line"/>
      <point x="203" y="380" type="line"/>
      <point x="187" y="305" type="line"/>
    </contour>
    <contour>
      <point x="286" y="104" type="line"/>
      <point x="306" y="104" type="line"/>
      <point x="306" y="215" type="line"/>
      <point x="286" y="215" type="line"/>
    </contour>
    <contour>
      <point x="45" y="485" type="line"/>
      <point x="53" y="502" type="line"/>
      <point x="26" y="529" type="line"/>
      <point x="19" y="512" type="line"/>
    </contour>
    <contour>
      <point x="208" y="363" type="line"/>
      <point x="221" y="378" type="line"/>
      <point x="198" y="406" type="line"/>
      <point x="186" y="391" type="line"/>
    </contour>
    <contour>
      <point x="291" y="202" type="line"/>
      <point x="306" y="215" type="line"/>
      <point x="258" y="311" type="line"/>
      <point x="246" y="296" type="line"/>
    </contour>
    <contour>
      <point x="194" y="429" type="line"/>
      <point x="202" y="446" type="line"/>
      <point x="56" y="500" type="line"/>
      <point x="49" y="483" type="line"/>
    </contour>
    <contour>
      <point x="208" y="363" type="line"/>
      <point x="228" y="363" type="line"/>
      <point x="228" y="383" type="line"/>
      <point x="208" y="383" type="line"/>
    </contour>
    <contour>
      <point x="244" y="298" type="line"/>
      <point x="259" y="305" type="line"/>
      <point x="233" y="380" type="line"/>
      <point x="215" y="372" type="line"/>
    </contour>
    <contour>
      <point x="186" y="391" type="line"/>
      <point x="206" y="391" type="line"/>
      <point x="206" y="442" type="line"/>
      <point x="186" y="442" type="line"/>
    </contour>
    <contour>
      <point x="416" y="74" type="line"/>
      <point x="436" y="74" type="line"/>
      <point x="436" y="221" type="line"/>
      <point x="416" y="221" type="line"/>
    </contour>
    <contour>
      <point x="22" y="512" type="line"/>
      <point x="132" y="585" type="line"/>
      <point x="119" y="600" type="line"/>
      <point x="10" y="528" type="line"/>
    </contour>
    <contour>
      <point x="293" y="199" type="line"/>
      <point x="426" y="204" type="line"/>
      <point x="426" y="222" type="line"/>
      <point x="293" y="218" type="line"/>
    </contour>
    <contour>
      <point x="425" y="205" type="line"/>
      <point x="436" y="221" type="line"/>
      <point x="258" y="311" type="line"/>
      <point x="251" y="293" type="line"/>
    </contour>
    <contour>
      <point x="51" y="483" type="line"/>
      <point x="133" y="532" type="line"/>
      <point x="122" y="547" type="line"/>
      <point x="40" y="498" type="line"/>
    </contour>
    <contour>
      <point x="228" y="363" type="line"/>
      <point x="250" y="391" type="line"/>
      <point x="238" y="406" type="line"/>
      <point x="215" y="378" type="line"/>
    </contour>
    <contour>
      <point x="199" y="429" type="line"/>
      <point x="221" y="462" type="line"/>
      <point x="208" y="475" type="line"/>
      <point x="186" y="441" type="line"/>
    </contour>
    <contour>
      <point x="258" y="291" type="line"/>
      <point x="306" y="387" type="line"/>
      <point x="291" y="400" type="line"/>
      <point x="246" y="306" type="line"/>
    </contour>
    <contour>
      <point x="206" y="460" type="line"/>
      <point x="220" y="469" type="line"/>
      <point x="129" y="544" type="line"/>
      <point x="114" y="534" type="line"/>
    </contour>
    <contour>
      <point x="230" y="391" type="line"/>
      <point x="250" y="391" type="line"/>
      <point x="250" y="442" type="line"/>
      <point x="230" y="442" type="line"/>
    </contour>
    <contour>
      <point x="208" y="454" type="line"/>
      <point x="228" y="454" type="line"/>
      <point x="228" y="475" type="line"/>
      <point x="208" y="475" type="line"/>
    </contour>
    <contour>
      <point x="118" y="530" type="line"/>
      <point x="134" y="540" type="line"/>
      <point x="129" y="595" type="line"/>
      <point x="113" y="586" type="line"/>
    </contour>
    <contour>
      <point x="237" y="429" type="line"/>
      <point x="250" y="441" type="line"/>
      <point x="228" y="475" type="line"/>
      <point x="215" y="462" type="line"/>
    </contour>
    <contour>
      <point x="290" y="385" type="line"/>
      <point x="290" y="404" type="line"/>
      <point x="240" y="404" type="line"/>
      <point x="239" y="384" type="line"/>
    </contour>
    <contour>
      <point x="122" y="527" type="line"/>
      <point x="234" y="527" type="line"/>
      <point x="234" y="547" type="line"/>
      <point x="122" y="547" type="line"/>
    </contour>
    <contour>
      <point x="230" y="460" type="line"/>
      <point x="240" y="534" type="line"/>
      <point x="225" y="544" type="line"/>
      <point x="216" y="469" type="line"/>
    </contour>
    <contour>
      <point x="242" y="429" type="line"/>
      <point x="297" y="483" type="line"/>
      <point x="290" y="500" type="line"/>
      <point x="234" y="446" type="line"/>
    </contour>
    <contour>
      <point x="426" y="380" type="line"/>
      <point x="426" y="398" type="line"/>
      <point x="293" y="403" type="line"/>
      <point x="293" y="384" type="line"/>
    </contour>
    <contour>
      <point x="286" y="387" type="line"/>
      <point x="306" y="387" type="line"/>
      <point x="306" y="498" type="line"/>
      <point x="286" y="498" type="line"/>
    </contour>
    <contour>
      <point x="119" y="580" type="line"/>
      <point x="317" y="580" type="line"/>
      <point x="317" y="600" type="line"/>
      <point x="119" y="600" type="line"/>
    </contour>
    <contour>
      <point x="295" y="483" type="line"/>
      <point x="306" y="498" type="line"/>
      <point x="234" y="547" type="line"/>
      <point x="223" y="532" type="line"/>
    </contour>
    <contour>
      <point x="234" y="533" type="line"/>
      <point x="323" y="586" type="line"/>
      <point x="307" y="595" type="line"/>
      <point x="218" y="543" type="line"/>
    </contour>
    <contour>
      <point x="416" y="381" type="line"/>
      <point x="436" y="381" type="line"/>
      <point x="436" y="528" type="line"/>
      <point x="416" y="528" type="line"/>
    </contour>
    <contour>
      <point x="301" y="486" type="line"/>
      <point x="427" y="513" type="line"/>
      <point x="420" y="529" type="line"/>
      <point x="293" y="502" type="line"/>
    </contour>
    <contour>
      <point x="424" y="512" type="line"/>
      <point x="436" y="528" type="line"/>
      <point x="317" y="600" type="line"/>
      <point x="304" y="585" type="line"/>
    </contour>
  </outline>
</glyph>
<glyph name="nine" format="2">
  <advance width="461"/>
  <unicode hex="0039"/>
  <outline>
    <contour>
      <point x="436" y="306" type="line"/>
      <point x="260" y="-1" type="line"/>
      <point x="280" y="-1" type="line"/>
      <point x="451" y="297" type="line"/>
    </contour>
    <contour>
      <point x="342" y="600" type="line"/>
      <point x="329" y="585" type="line"/>
      <point x="436" y="463" type="line"/>
      <point x="451" y="476" type="line"/>
    </contour>
    <contour>
      <point x="332" y="595" type="line"/>
      <point x="242" y="518" type="line"/>
      <point x="258" y="509" type="line"/>
      <point x="348" y="587" type="line"/>
    </contour>
    <contour>
      <point x="435" y="481" type="line"/>
      <point x="304" y="457" type="line"/>
      <point x="311" y="439" type="line"/>
      <point x="440" y="464" type="line"/>
    </contour>
    <contour>
      <point x="451" y="476" type="line"/>
      <point x="431" y="476" type="line"/>
      <point x="431" y="291" type="line"/>
      <point x="451" y="297" type="line"/>
    </contour>
    <contour>
      <point x="255" y="524" type="line"/>
      <point x="243" y="508" type="line"/>
      <point x="308" y="439" type="line"/>
      <point x="322" y="453" type="line"/>
    </contour>
    <contour>
      <point x="342" y="600" type="line"/>
      <point x="116" y="600" type="line"/>
      <point x="116" y="580" type="line"/>
      <point x="342" y="580" type="line"/>
    </contour>
    <contour>
      <point x="310" y="458" type="line"/>
      <point x="254" y="426" type="line"/>
      <point x="261" y="410" type="line"/>
      <point x="315" y="440" type="line"/>
    </contour>
    <contour>
      <point x="241" y="517" type="line"/>
      <point x="234" y="445" type="line"/>
      <point x="248" y="435" type="line"/>
      <point x="256" y="506" type="line"/>
    </contour>
    <contour>
      <point x="322" y="453" type="line"/>
      <point x="302" y="453" type="line"/>
      <point x="302" y="314" type="line"/>
      <point x="322" y="314" type="line"/>
    </contour>
    <contour>
      <point x="255" y="524" type="line"/>
      <point x="120" y="524" type="line"/>
      <point x="120" y="504" type="line"/>
      <point x="255" y="504" type="line"/>
    </contour>
    <contour>
      <point x="313" y="329" type="line"/>
      <point x="308" y="310" type="line"/>
      <point x="440" y="290" type="line"/>
      <point x="444" y="308" type="line"/>
    </contour>
    <contour>
      <point x="247" y="452" type="line"/>
      <point x="234" y="437" type="line"/>
      <point x="254" y="410" type="line"/>
      <point x="267" y="424" type="line"/>
    </contour>
    <contour>
      <point x="126" y="593" type="line"/>
      <point x="110" y="585" type="line"/>
      <point x="119" y="508" type="line"/>
      <point x="134" y="516" type="line"/>
    </contour>
    <contour>
      <point x="247" y="452" type="line"/>
      <point x="217" y="452" type="line"/>
      <point x="217" y="431" type="line"/>
      <point x="247" y="431" type="line"/>
    </contour>
    <contour>
      <point x="267" y="424" type="line"/>
      <point x="247" y="424" type="line"/>
      <point x="247" y="358" type="line"/>
      <point x="267" y="358" type="line"/>
    </contour>
    <contour>
      <point x="130" y="517" type="line"/>
      <point x="115" y="507" type="line"/>
      <point x="218" y="435" type="line"/>
      <point x="232" y="445" type="line"/>
    </contour>
    <contour>
      <point x="259" y="373" type="line"/>
      <point x="250" y="356" type="line"/>
      <point x="303" y="313" type="line"/>
      <point x="313" y="329" type="line"/>
    </contour>
    <contour>
      <point x="217" y="452" type="line"/>
      <point x="198" y="424" type="line"/>
      <point x="215" y="414" type="line"/>
      <point x="232" y="439" type="line"/>
    </contour>
    <contour>
      <point x="311" y="328" type="line"/>
      <point x="228" y="274" type="line"/>
      <point x="238" y="260" type="line"/>
      <point x="322" y="314" type="line"/>
    </contour>
    <contour>
      <point x="120" y="524" type="line"/>
      <point x="56" y="465" type="line"/>
      <point x="69" y="453" type="line"/>
      <point x="133" y="511" type="line"/>
    </contour>
    <contour>
      <point x="251" y="371" type="line"/>
      <point x="236" y="344" type="line"/>
      <point x="248" y="329" type="line"/>
      <point x="267" y="358" type="line"/>
    </contour>
    <contour>
      <point x="71" y="473" type="line"/>
      <point x="63" y="455" type="line"/>
      <point x="204" y="411" type="line"/>
      <point x="212" y="428" type="line"/>
    </contour>
    <contour>
      <point x="116" y="600" type="line"/>
      <point x="10" y="495" type="line"/>
      <point x="21" y="479" type="line"/>
      <point x="128" y="584" type="line"/>
    </contour>
    <contour>
      <point x="218" y="424" type="line"/>
      <point x="198" y="424" type="line"/>
      <point x="198" y="357" type="line"/>
      <point x="218" y="357" type="line"/>
    </contour>
    <contour>
      <point x="250" y="346" type="line"/>
      <point x="236" y="336" type="line"/>
      <point x="233" y="266" type="line"/>
      <point x="249" y="275" type="line"/>
    </contour>
    <contour>
      <point x="248" y="350" type="line"/>
      <point x="218" y="350" type="line"/>
      <point x="218" y="329" type="line"/>
      <point x="248" y="329" type="line"/>
    </contour>
    <contour>
      <point x="212" y="371" type="line"/>
      <point x="198" y="357" type="line"/>
      <point x="218" y="329" type="line"/>
      <point x="231" y="345" type="line"/>
    </contour>
    <contour>
      <point x="21" y="500" type="line"/>
      <point x="17" y="482" type="line"/>
      <point x="64" y="452" type="line"/>
      <point x="69" y="471" type="line"/>
    </contour>
    <contour>
      <point x="238" y="280" type="line"/>
      <point x="121" y="280" type="line"/>
      <point x="121" y="260" type="line"/>
      <point x="238" y="260" type="line"/>
    </contour>
    <contour>
      <point x="216" y="346" type="line"/>
      <point x="110" y="277" type="line"/>
      <point x="124" y="266" type="line"/>
      <point x="232" y="335" type="line"/>
    </contour>
    <contour>
      <point x="204" y="372" type="line"/>
      <point x="66" y="326" type="line"/>
      <point x="73" y="309" type="line"/>
      <point x="213" y="356" type="line"/>
    </contour>
    <contour>
      <point x="76" y="465" type="line"/>
      <point x="56" y="465" type="line"/>
      <point x="56" y="309" type="line"/>
      <point x="76" y="309" type="line"/>
    </contour>
    <contour>
      <point x="304" y="322" type="line"/>
      <point x="162" y="71" type="line"/>
      <point x="181" y="65" type="line"/>
      <point x="321" y="315" type="line"/>
    </contour>
    <contour>
      <point x="228" y="270" type="line"/>
      <point x="212" y="205" type="line"/>
      <point x="233" y="207" type="line"/>
      <point x="247" y="267" type="line"/>
    </contour>
    <contour>
      <point x="68" y="324" type="line"/>
      <point x="56" y="309" type="line"/>
      <point x="117" y="260" type="line"/>
      <point x="129" y="275" type="line"/>
    </contour>
    <contour>
      <point x="30" y="495" type="line"/>
      <point x="10" y="495" type="line"/>
      <point x="10" y="298" type="line"/>
      <point x="30" y="298" type="line"/>
    </contour>
    <contour>
      <point x="111" y="275" type="line"/>
      <point x="119" y="215" type="line"/>
      <point x="136" y="204" type="line"/>
      <point x="130" y="266" type="line"/>
    </contour>
    <contour>
      <point x="223" y="216" type="line"/>
      <point x="124" y="216" type="line"/>
      <point x="124" y="196" type="line"/>
      <point x="223" y="196" type="line"/>
    </contour>
    <contour>
      <point x="64" y="325" type="line"/>
      <point x="23" y="314" type="line"/>
      <point x="30" y="295" type="line"/>
      <point x="70" y="306" type="line"/>
    </contour>
    <contour>
      <point x="20" y="313" type="line"/>
      <point x="10" y="298" type="line"/>
      <point x="124" y="196" type="line"/>
      <point x="136" y="211" type="line"/>
    </contour>
    <contour>
      <point x="182" y="84" type="line"/>
      <point x="168" y="73" type="line"/>
      <point x="271" y="7" type="line"/>
      <point x="285" y="20" type="line"/>
    </contour>
    <contour>
      <point x="233" y="207" type="line"/>
      <point x="213" y="208" type="line"/>
      <point x="74" y="-1" type="line"/>
      <point x="99" y="-1" type="line"/>
    </contour>
    <contour>
      <point x="175" y="87" type="line"/>
      <point x="94" y="20" type="line"/>
      <point x="103" y="3" type="line"/>
      <point x="181" y="70" type="line"/>
    </contour>
    <contour>
      <point x="277" y="21" type="line"/>
      <point x="95" y="21" type="line"/>
      <point x="95" y="-1" type="line"/>
      <point x="277" y="-1" type="line"/>
    </contour>
  </outline>
</glyph>
<glyph name="C" format="2">
  <advance width="502"/>
  <unicode hex="0043"/>
  <anchor x="261" y="0" name="bottom"/>
  <anchor x="261" y="600" name="top"/>
  <outline>
    <contour>
      <point x="347" y="0" type="line"/>
      <point x="495" y="137" type="line"/>
      <point x="479" y="151" type="line"/>
      <point x="330" y="13" type="line"/>
    </contour>
    <contour>
      <point x="154" y="0" type="line"/>
      <point x="169" y="15" type="line"/>
      <point x="20" y="153" type="line"/>
      <point x="5" y="138" type="line"/>
    </contour>
    <contour>
      <point x="22" y="140" type="line"/>
      <point x="62" y="164" type="line"/>
      <point x="56" y="181" type="line"/>
      <point x="16" y="157" type="line"/>
    </contour>
    <contour>
      <point x="154" y="0" type="line"/>
      <point x="347" y="0" type="line"/>
      <point x="347" y="19" type="line"/>
      <point x="154" y="19" type="line"/>
    </contour>
    <contour>
      <point x="178" y="6" type="line"/>
      <point x="160" y="90" type="line"/>
      <point x="138" y="99" type="line"/>
      <point x="156" y="15" type="line"/>
    </contour>
    <contour>
      <point x="5" y="138" type="line"/>
      <point x="26" y="138" type="line"/>
      <point x="26" y="464" type="line"/>
      <point x="5" y="464" type="line"/>
    </contour>
    <contour>
      <point x="148" y="76" type="line"/>
      <point x="163" y="92" type="line"/>
      <point x="62" y="181" type="line"/>
      <point x="47" y="166" type="line"/>
    </contour>
    <contour>
      <point x="60" y="162" type="line"/>
      <point x="208" y="192" type="line"/>
      <point x="202" y="209" type="line"/>
      <point x="54" y="180" type="line"/>
    </contour>
    <contour>
      <point x="148" y="76" type="line"/>
      <point x="269" y="76" type="line"/>
      <point x="267" y="95" type="line"/>
      <point x="148" y="95" type="line"/>
    </contour>
    <contour>
      <point x="159" y="85" type="line"/>
      <point x="239" y="172" type="line"/>
      <point x="225" y="180" type="line"/>
      <point x="145" y="96" type="line"/>
    </contour>
    <contour>
      <point x="47" y="166" type="line"/>
      <point x="69" y="166" type="line"/>
      <point x="69" y="440" type="line"/>
      <point x="47" y="440" type="line"/>
    </contour>
    <contour>
      <point x="337" y="11" type="line"/>
      <point x="354" y="21" type="line"/>
      <point x="261" y="101" type="line"/>
      <point x="244" y="91" type="line"/>
    </contour>
    <contour>
      <point x="220" y="166" type="line"/>
      <point x="235" y="181" type="line"/>
      <point x="201" y="214" type="line"/>
      <point x="185" y="199" type="line"/>
    </contour>
    <contour>
      <point x="219" y="166" type="line"/>
      <point x="272" y="166" type="line"/>
      <point x="275" y="185" type="line"/>
      <point x="219" y="185" type="line"/>
    </contour>
    <contour>
      <point x="54" y="427" type="line"/>
      <point x="60" y="444" type="line"/>
      <point x="20" y="459" type="line"/>
      <point x="14" y="442" type="line"/>
    </contour>
    <contour>
      <point x="248" y="83" type="line"/>
      <point x="266" y="94" type="line"/>
      <point x="277" y="176" type="line"/>
      <point x="259" y="168" type="line"/>
    </contour>
    <contour>
      <point x="187" y="199" type="line"/>
      <point x="208" y="199" type="line"/>
      <point x="208" y="422" type="line"/>
      <point x="187" y="422" type="line"/>
    </contour>
    <contour>
      <point x="269" y="76" type="line"/>
      <point x="338" y="172" type="line"/>
      <point x="323" y="183" type="line"/>
      <point x="254" y="87" type="line"/>
    </contour>
    <contour>
      <point x="268" y="164" type="line"/>
      <point x="316" y="199" type="line"/>
      <point x="305" y="214" type="line"/>
      <point x="259" y="182" type="line"/>
    </contour>
    <contour>
      <point x="199" y="409" type="line"/>
      <point x="206" y="426" type="line"/>
      <point x="60" y="444" type="line"/>
      <point x="54" y="426" type="line"/>
    </contour>
    <contour>
      <point x="296" y="198" type="line"/>
      <point x="318" y="198" type="line"/>
      <point x="318" y="279" type="line"/>
      <point x="296" y="279" type="line"/>
    </contour>
    <contour>
      <point x="20" y="449" type="line"/>
      <point x="150" y="585" type="line"/>
      <point x="135" y="600" type="line"/>
      <point x="5" y="464" type="line"/>
    </contour>
    <contour>
      <point x="296" y="259" type="line"/>
      <point x="495" y="259" type="line"/>
      <point x="495" y="279" type="line"/>
      <point x="296" y="279" type="line"/>
    </contour>
    <contour>
      <point x="62" y="425" type="line"/>
      <point x="145" y="516" type="line"/>
      <point x="132" y="531" type="line"/>
      <point x="47" y="440" type="line"/>
    </contour>
    <contour>
      <point x="324" y="171" type="line"/>
      <point x="330" y="189" type="line"/>
      <point x="301" y="214" type="line"/>
      <point x="295" y="196" type="line"/>
    </contour>
    <contour>
      <point x="330" y="170" type="line"/>
      <point x="346" y="183" type="line"/>
      <point x="318" y="274" type="line"/>
      <point x="302" y="261" type="line"/>
    </contour>
    <contour>
      <point x="336" y="170" type="line"/>
      <point x="486" y="257" type="line"/>
      <point x="472" y="270" type="line"/>
      <point x="322" y="183" type="line"/>
    </contour>
    <contour>
      <point x="474" y="129" type="line"/>
      <point x="480" y="149" type="line"/>
      <point x="332" y="189" type="line"/>
      <point x="326" y="169" type="line"/>
    </contour>
    <contour>
      <point x="202" y="407" type="line"/>
      <point x="233" y="438" type="line"/>
      <point x="218" y="453" type="line"/>
      <point x="187" y="422" type="line"/>
    </contour>
    <contour>
      <point x="474" y="136" type="line"/>
      <point x="495" y="136" type="line"/>
      <point x="495" y="279" type="line"/>
      <point x="474" y="279" type="line"/>
    </contour>
    <contour>
      <point x="216" y="437" type="line"/>
      <point x="231" y="448" type="line"/>
      <point x="141" y="533" type="line"/>
      <point x="124" y="521" type="line"/>
    </contour>
    <contour>
      <point x="295" y="343" type="line"/>
      <point x="317" y="343" type="line"/>
      <point x="317" y="420" type="line"/>
      <point x="295" y="420" type="line"/>
    </contour>
    <contour>
      <point x="218" y="434" type="line"/>
      <point x="274" y="434" type="line"/>
      <point x="274" y="453" type="line"/>
      <point x="218" y="453" type="line"/>
    </contour>
    <contour>
      <point x="130" y="514" type="line"/>
      <point x="150" y="528" type="line"/>
      <point x="147" y="594" type="line"/>
      <point x="129" y="588" type="line"/>
    </contour>
    <contour>
      <point x="301" y="404" type="line"/>
      <point x="317" y="420" type="line"/>
      <point x="274" y="453" type="line"/>
      <point x="259" y="438" type="line"/>
    </contour>
    <contour>
      <point x="296" y="343" type="line"/>
      <point x="496" y="343" type="line"/>
      <point x="496" y="363" type="line"/>
      <point x="296" y="363" type="line"/>
    </contour>
    <contour>
      <point x="320" y="348" type="line"/>
      <point x="341" y="420" type="line"/>
      <point x="325" y="430" type="line"/>
      <point x="304" y="359" type="line"/>
    </contour>
    <contour>
      <point x="130" y="513" type="line"/>
      <point x="266" y="513" type="line"/>
      <point x="266" y="533" type="line"/>
      <point x="130" y="533" type="line"/>
    </contour>
    <contour>
      <point x="280" y="442" type="line"/>
      <point x="273" y="520" type="line"/>
      <point x="255" y="531" type="line"/>
      <point x="262" y="443" type="line"/>
    </contour>
    <contour>
      <point x="305" y="409" type="line"/>
      <point x="339" y="421" type="line"/>
      <point x="333" y="437" type="line"/>
      <point x="299" y="425" type="line"/>
    </contour>
    <contour>
      <point x="135" y="580" type="line"/>
      <point x="349" y="580" type="line"/>
      <point x="349" y="600" type="line"/>
      <point x="135" y="600" type="line"/>
    </contour>
    <contour>
      <point x="476" y="350" type="line"/>
      <point x="491" y="361" type="line"/>
      <point x="339" y="436" type="line"/>
      <point x="324" y="425" type="line"/>
    </contour>
    <contour>
      <point x="323" y="426" type="line"/>
      <point x="339" y="436" type="line"/>
      <point x="268" y="530" type="line"/>
      <point x="257" y="517" type="line"/>
    </contour>
    <contour>
      <point x="271" y="517" type="line"/>
      <point x="357" y="582" type="line"/>
      <point x="346" y="596" type="line"/>
      <point x="253" y="527" type="line"/>
    </contour>
    <contour>
      <point x="338" y="419" type="line"/>
      <point x="486" y="469" type="line"/>
      <point x="479" y="487" type="line"/>
      <point x="331" y="437" type="line"/>
    </contour>
    <contour>
      <point x="475" y="344" type="line"/>
      <point x="497" y="344" type="line"/>
      <point x="497" y="475" type="line"/>
      <point x="475" y="475" type="line"/>
    </contour>
    <contour>
      <point x="482" y="460" type="line"/>
      <point x="497" y="475" type="line"/>
      <point x="349" y="600" type="line"/>
      <point x="334" y="585" type="line"/>
    </contour>
  </outline>
</glyph>
<glyph name="E" format="2">
  <advance width="462"/>
  <unicode hex="0045"/>
  <anchor x="224" y="0" name="bottom"/>
  <anchor x="398" y="10" name="ogonek"/>
  <anchor x="224" y="600" name="top"/>
  <anchor x="25" y="600" name="topleft"/>
  <outline>
    <contour>
      <point x="23" y="0" type="line"/>
      <point x="72" y="89" type="line"/>
      <point x="59" y="102" type="line"/>
      <point x="10" y="13" type="line"/>
    </contour>
    <contour>
      <point x="10" y="0" type="line"/>
      <point x="30" y="0" type="line"/>
      <point x="30" y="600" type="line"/>
      <point x="10" y="600" type="line"/>
    </contour>
    <contour>
      <point x="57" y="97" type="line"/>
      <point x="77" y="97" type="line"/>
      <point x="77" y="521" type="line"/>
      <point x="57" y="521" type="line"/>
    </contour>
    <contour>
      <point x="207" y="223" type="line"/>
      <point x="220" y="237" type="line"/>
      <point x="79" y="320" type="line"/>
      <point x="64" y="307" type="line"/>
    </contour>
    <contour>
      <point x="207" y="225" type="line"/>
      <point x="357" y="225" type="line"/>
      <point x="357" y="245" type="line"/>
      <point x="207" y="245" type="line"/>
    </contour>
    <contour>
      <point x="80" y="315" type="line"/>
      <point x="220" y="370" type="line"/>
      <point x="207" y="385" type="line"/>
      <point x="65" y="326" type="line"/>
    </contour>
    <contour>
      <point x="59" y="506" type="line"/>
      <point x="74" y="519" type="line"/>
      <point x="32" y="593" type="line"/>
      <point x="17" y="580" type="line"/>
    </contour>
    <contour>
      <point x="77" y="307" type="line"/>
      <point x="207" y="307" type="line"/>
      <point x="220" y="327" type="line"/>
      <point x="77" y="327" type="line"/>
    </contour>
    <contour>
      <point x="207" y="365" type="line"/>
      <point x="357" y="365" type="line"/>
      <point x="357" y="385" type="line"/>
      <point x="207" y="385" type="line"/>
    </contour>
    <contour>
      <point x="347" y="225" type="line"/>
      <point x="360" y="237" type="line"/>
      <point x="202" y="327" type="line"/>
      <point x="187" y="316" type="line"/>
    </contour>
    <contour>
      <point x="204" y="307" type="line"/>
      <point x="360" y="370" type="line"/>
      <point x="347" y="385" type="line"/>
      <point x="187" y="316" type="line"/>
    </contour>
    <contour>
      <point x="347" y="225" type="line"/>
      <point x="367" y="225" type="line"/>
      <point x="367" y="385" type="line"/>
      <point x="347" y="385" type="line"/>
    </contour>
    <contour>
      <point x="197" y="160" type="line"/>
      <point x="217" y="160" type="line"/>
      <point x="217" y="245" type="line"/>
      <point x="197" y="245" type="line"/>
    </contour>
    <contour>
      <point x="20" y="0" type="line"/>
      <point x="447" y="0" type="line"/>
      <point x="447" y="20" type="line"/>
      <point x="20" y="20" type="line"/>
    </contour>
    <contour>
      <point x="78" y="95" type="line"/>
      <point x="216" y="165" type="line"/>
      <point x="203" y="180" type="line"/>
      <point x="63" y="106" type="line"/>
    </contour>
    <contour>
      <point x="63" y="87" type="line"/>
      <point x="297" y="87" type="line"/>
      <point x="297" y="107" type="line"/>
      <point x="63" y="107" type="line"/>
    </contour>
    <contour>
      <point x="203" y="160" type="line"/>
      <point x="447" y="160" type="line"/>
      <point x="447" y="180" type="line"/>
      <point x="203" y="180" type="line"/>
    </contour>
    <contour>
      <point x="437" y="10" type="line"/>
      <point x="450" y="22" type="line"/>
      <point x="292" y="107" type="line"/>
      <point x="277" y="96" type="line"/>
    </contour>
    <contour>
      <point x="294" y="87" type="line"/>
      <point x="450" y="165" type="line"/>
      <point x="437" y="180" type="line"/>
      <point x="277" y="96" type="line"/>
    </contour>
    <contour>
      <point x="437" y="0" type="line"/>
      <point x="457" y="0" type="line"/>
      <point x="457" y="180" type="line"/>
      <point x="437" y="180" type="line"/>
    </contour>
    <contour>
      <point x="20" y="600" type="line"/>
      <point x="20" y="580" type="line"/>
      <point x="447" y="580" type="line"/>
      <point x="447" y="600" type="line"/>
    </contour>
    <contour>
      <point x="78" y="515" type="line"/>
      <point x="63" y="504" type="line"/>
      <point x="203" y="420" type="line"/>
      <point x="216" y="435" type="line"/>
    </contour>
    <contour>
      <point x="63" y="523" type="line"/>
      <point x="63" y="503" type="line"/>
      <point x="297" y="503" type="line"/>
      <point x="297" y="523" type="line"/>
    </contour>
    <contour>
      <point x="197" y="440" type="line"/>
      <point x="197" y="420" type="line"/>
      <point x="447" y="420" type="line"/>
      <point x="447" y="440" type="line"/>
    </contour>
    <contour>
      <point x="433" y="593" type="line"/>
      <point x="276" y="520" type="line"/>
      <point x="291" y="506" type="line"/>
      <point x="450" y="580" type="line"/>
    </contour>
    <contour>
      <point x="292" y="517" type="line"/>
      <point x="274" y="508" type="line"/>
      <point x="437" y="427" type="line"/>
      <point x="450" y="442" type="line"/>
    </contour>
    <contour>
      <point x="437" y="600" type="line"/>
      <point x="437" y="420" type="line"/>
      <point x="457" y="420" type="line"/>
      <point x="457" y="600" type="line"/>
    </contour>
    <contour>
      <point x="197" y="365" type="line"/>
      <point x="217" y="365" type="line"/>
      <point x="217" y="438" type="line"/>
      <point x="197" y="438" type="line"/>
    </contour>
  </outline>
</glyph>
<glyph name="H" format="2">
  <advance width="517"/>
  <unicode hex="0048"/>
  <anchor x="259" y="0" name="bottom"/>
  <anchor x="259" y="300" name="center"/>
  <anchor x="259" y="600" name="top"/>
  <anchor x="25" y="600" name="topleft"/>
  <outline>
    <contour>
      <point x="10" y="0" type="line"/>
      <point x="230" y="0" type="line"/>
      <point x="230" y="20" type="line"/>
      <point x="10" y="20" type="line"/>
    </contour>
    <contour>
      <point x="23" y="0" type="line"/>
      <point x="82" y="92" type="line"/>
      <point x="69" y="105" type="line"/>
      <point x="10" y="13" type="line"/>
    </contour>
    <contour>
      <point x="10" y="0" type="line"/>
      <point x="30" y="0" type="line"/>
      <point x="30" y="600" type="line"/>
      <point x="10" y="600" type="line"/>
    </contour>
    <contour>
      <point x="217" y="0" type="line"/>
      <point x="230" y="13" type="line"/>
      <point x="85" y="105" type="line"/>
      <point x="72" y="92" type="line"/>
    </contour>
    <contour>
      <point x="210" y="0" type="line"/>
      <point x="230" y="0" type="line"/>
      <point x="230" y="228" type="line"/>
      <point x="210" y="228" type="line"/>
    </contour>
    <contour>
      <point x="67" y="90" type="line"/>
      <point x="87" y="90" type="line"/>
      <point x="87" y="510" type="line"/>
      <point x="67" y="510" type="line"/>
    </contour>
    <contour>
      <point x="287" y="0" type="line"/>
      <point x="307" y="0" type="line"/>
      <point x="307" y="233" type="line"/>
      <point x="287" y="233" type="line"/>
    </contour>
    <contour>
      <point x="220" y="220" type="line"/>
      <point x="233" y="232" type="line"/>
      <point x="82" y="320" type="line"/>
      <point x="67" y="309" type="line"/>
    </contour>
    <contour>
      <point x="287" y="0" type="line"/>
      <point x="507" y="0" type="line"/>
      <point x="507" y="20" type="line"/>
      <point x="287" y="20" type="line"/>
    </contour>
    <contour>
      <point x="300" y="0" type="line"/>
      <point x="358" y="92" type="line"/>
      <point x="345" y="105" type="line"/>
      <point x="287" y="13" type="line"/>
    </contour>
    <contour>
      <point x="220" y="220" type="line"/>
      <point x="297" y="220" type="line"/>
      <point x="297" y="240" type="line"/>
      <point x="220" y="240" type="line"/>
    </contour>
    <contour>
      <point x="82" y="298" type="line"/>
      <point x="233" y="385" type="line"/>
      <point x="220" y="400" type="line"/>
      <point x="67" y="309" type="line"/>
    </contour>
    <contour>
      <point x="494" y="0" type="line"/>
      <point x="507" y="13" type="line"/>
      <point x="361" y="105" type="line"/>
      <point x="348" y="92" type="line"/>
    </contour>
    <contour>
      <point x="69" y="495" type="line"/>
      <point x="82" y="508" type="line"/>
      <point x="23" y="600" type="line"/>
      <point x="10" y="587" type="line"/>
    </contour>
    <contour>
      <point x="87" y="300" type="line"/>
      <point x="347" y="300" type="line"/>
      <point x="347" y="320" type="line"/>
      <point x="87" y="320" type="line"/>
    </contour>
    <contour>
      <point x="300" y="220" type="line"/>
      <point x="361" y="311" type="line"/>
      <point x="347" y="322" type="line"/>
      <point x="287" y="234" type="line"/>
    </contour>
    <contour>
      <point x="220" y="380" type="line"/>
      <point x="297" y="380" type="line"/>
      <point x="297" y="400" type="line"/>
      <point x="220" y="400" type="line"/>
    </contour>
    <contour>
      <point x="15" y="580" type="line"/>
      <point x="230" y="580" type="line"/>
      <point x="230" y="600" type="line"/>
      <point x="15" y="600" type="line"/>
    </contour>
    <contour>
      <point x="84" y="495" type="line"/>
      <point x="229" y="587" type="line"/>
      <point x="216" y="600" type="line"/>
      <point x="71" y="508" type="line"/>
    </contour>
    <contour>
      <point x="210" y="390" type="line"/>
      <point x="230" y="390" type="line"/>
      <point x="230" y="600" type="line"/>
      <point x="210" y="600" type="line"/>
    </contour>
    <contour>
      <point x="347" y="300" type="line"/>
      <point x="362" y="311" type="line"/>
      <point x="302" y="400" type="line"/>
      <point x="287" y="387" type="line"/>
    </contour>
    <contour>
      <point x="343" y="90" type="line"/>
      <point x="363" y="90" type="line"/>
      <point x="363" y="510" type="line"/>
      <point x="343" y="510" type="line"/>
    </contour>
    <contour>
      <point x="287" y="390" type="line"/>
      <point x="307" y="390" type="line"/>
      <point x="307" y="600" type="line"/>
      <point x="287" y="600" type="line"/>
    </contour>
    <contour>
      <point x="487" y="0" type="line"/>
      <point x="507" y="0" type="line"/>
      <point x="507" y="600" type="line"/>
      <point x="487" y="600" type="line"/>
    </contour>
    <contour>
      <point x="345" y="495" type="line"/>
      <point x="358" y="508" type="line"/>
      <point x="300" y="600" type="line"/>
      <point x="287" y="587" type="line"/>
    </contour>
    <contour>
      <point x="360" y="495" type="line"/>
      <point x="506" y="587" type="line"/>
      <point x="493" y="600" type="line"/>
      <point x="347" y="508" type="line"/>
    </contour>
    <contour>
      <point x="292" y="580" type="line"/>
      <point x="507" y="580" type="line"/>
      <point x="507" y="600" type="line"/>
      <point x="292" y="600" type="line"/>
    </contour>
  </outline>
</glyph>
<glyph name="I" format="2">
  <advance width="240"/>
  <unicode hex="0049"/>
  <anchor x="113" y="0" name="bottom"/>
  <anchor x="212" y="18" name="ogonek"/>
  <anchor x="113" y="600" name="top"/>
  <anchor x="25" y="600" name="topleft"/>
  <outline>
    <contour>
      <point x="10" y="0" type="line"/>
      <point x="230" y="0" type="line"/>
      <point x="230" y="20" type="line"/>
      <point x="10" y="20" type="line"/>
    </contour>
    <contour>
      <point x="23" y="0" type="line"/>
      <point x="82" y="92" type="line"/>
      <point x="69" y="105" type="line"/>
      <point x="10" y="13" type="line"/>
    </contour>
    <contour>
      <point x="217" y="0" type="line"/>
      <point x="230" y="13" type="line"/>
      <point x="85" y="105" type="line"/>
      <point x="72" y="92" type="line"/>
    </contour>
    <contour>
      <point x="10" y="0" type="line"/>
      <point x="30" y="0" type="line"/>
      <point x="30" y="600" type="line"/>
      <point x="10" y="600" type="line"/>
    </contour>
    <contour>
      <point x="67" y="90" type="line"/>
      <point x="87" y="90" type="line"/>
      <point x="87" y="510" type="line"/>
      <point x="67" y="510" type="line"/>
    </contour>
    <contour>
      <point x="210" y="0" type="line"/>
      <point x="230" y="0" type="line"/>
      <point x="230" y="600" type="line"/>
      <point x="210" y="600" type="line"/>
    </contour>
    <contour>
      <point x="69" y="495" type="line"/>
      <point x="82" y="508" type="line"/>
      <point x="23" y="600" type="line"/>
      <point x="10" y="587" type="line"/>
    </contour>
    <contour>
      <point x="15" y="580" type="line"/>
      <point x="230" y="580" type="line"/>
      <point x="230" y="600" type="line"/>
      <point x="15" y="600" type="line"/>
    </contour>
    <contour>
      <point x="84" y="495" type="line"/>
      <point x="229" y="587" type="line"/>
      <point x="216" y="600" type="line"/>
      <point x="71" y="508" type="line"/>
    </contour>
  </outline>
</glyph>
<glyph name="J" format="2">
  <advance width="300"/>
  <unicode hex="004A"/>
  <anchor x="168" y="0" name="bottom"/>
  <anchor x="168" y="600" name="top"/>
  <outline>
    <contour>
      <point x="137" y="0" type="line"/>
      <point x="290" y="146" type="line"/>
      <point x="276" y="160" type="line"/>
      <point x="123" y="14" type="line"/>
    </contour>
    <contour>
      <point x="5" y="0" type="line"/>
      <point x="137" y="0" type="line"/>
      <point x="137" y="18" type="line"/>
      <point x="5" y="18" type="line"/>
    </contour>
    <contour>
      <point x="5" y="0" type="line"/>
      <point x="25" y="0" type="line"/>
      <point x="25" y="185" type="line"/>
      <point x="5" y="185" type="line"/>
    </contour>
    <contour>
      <point x="27" y="4" type="line"/>
      <point x="74" y="108" type="line"/>
      <point x="60" y="119" type="line"/>
      <point x="13" y="20" type="line"/>
    </contour>
    <contour>
      <point x="125" y="9" type="line"/>
      <point x="142" y="18" type="line"/>
      <point x="71" y="112" type="line"/>
      <point x="54" y="103" type="line"/>
    </contour>
    <contour>
      <point x="6" y="167" type="line"/>
      <point x="51" y="167" type="line"/>
      <point x="51" y="185" type="line"/>
      <point x="6" y="185" type="line"/>
    </contour>
    <contour>
      <point x="56" y="100" type="line"/>
      <point x="73" y="109" type="line"/>
      <point x="53" y="184" type="line"/>
      <point x="36" y="175" type="line"/>
    </contour>
    <contour>
      <point x="51" y="167" type="line"/>
      <point x="88" y="204" type="line"/>
      <point x="76" y="218" type="line"/>
      <point x="39" y="181" type="line"/>
    </contour>
    <contour>
      <point x="67" y="98" type="line"/>
      <point x="146" y="184" type="line"/>
      <point x="132" y="198" type="line"/>
      <point x="53" y="112" type="line"/>
    </contour>
    <contour>
      <point x="129" y="182" type="line"/>
      <point x="135" y="199" type="line"/>
      <point x="74" y="222" type="line"/>
      <point x="68" y="205" type="line"/>
    </contour>
    <contour>
      <point x="124" y="182" type="line"/>
      <point x="284" y="142" type="line"/>
      <point x="290" y="159" type="line"/>
      <point x="130" y="199" type="line"/>
    </contour>
    <contour>
      <point x="68" y="204" type="line"/>
      <point x="88" y="204" type="line"/>
      <point x="88" y="600" type="line"/>
      <point x="68" y="600" type="line"/>
    </contour>
    <contour>
      <point x="126" y="184" type="line"/>
      <point x="146" y="184" type="line"/>
      <point x="146" y="515" type="line"/>
      <point x="126" y="515" type="line"/>
    </contour>
    <contour>
      <point x="270" y="146" type="line"/>
      <point x="290" y="146" type="line"/>
      <point x="290" y="600" type="line"/>
      <point x="270" y="600" type="line"/>
    </contour>
    <contour>
      <point x="128" y="502" type="line"/>
      <point x="145" y="511" type="line"/>
      <point x="91" y="588" type="line"/>
      <point x="71" y="581" type="line"/>
    </contour>
    <contour>
      <point x="72" y="580" type="line"/>
      <point x="287" y="580" type="line"/>
      <point x="287" y="600" type="line"/>
      <point x="72" y="600" type="line"/>
    </contour>
    <contour>
      <point x="144" y="501" type="line"/>
      <point x="285" y="579" type="line"/>
      <point x="265" y="586" type="line"/>
      <point x="127" y="511" type="line"/>
    </contour>
  </outline>
</glyph>
<glyph name="N" format="2">
  <advance width="578"/>
  <unicode hex="004E"/>
  <anchor x="289" y="0" name="bottom"/>
  <anchor x="289" y="600" name="top"/>
  <outline>
    <contour>
      <point x="10" y="0" type="line"/>
      <point x="30" y="0" type="line"/>
      <point x="30" y="600" type="line"/>
      <point x="10" y="600" type="line"/>
    </contour>
    <contour>
      <point x="172" y="0" type="line"/>
      <point x="192" y="0" type="line"/>
      <point x="192" y="338" type="line"/>
      <point x="172" y="378" type="line"/>
    </contour>
    <contour>
      <point x="548" y="0" type="line"/>
      <point x="568" y="0" type="line"/>
      <point x="568" y="600" type="line"/>
      <point x="548" y="600" type="line"/>
    </contour>
    <contour>
      <point x="425" y="93" type="line"/>
      <point x="445" y="84" type="line"/>
      <point x="445" y="549" type="line"/>
      <point x="425" y="549" type="line"/>
    </contour>
    <contour>
      <point x="552" y="18" type="line"/>
      <point x="562" y="34" type="line"/>
      <point x="395" y="121" type="line"/>
      <point x="387" y="105" type="line"/>
    </contour>
    <contour>
      <point x="354" y="20" type="line"/>
      <point x="404" y="109" type="line"/>
      <point x="391" y="123" type="line"/>
      <point x="344" y="36" type="line"/>
    </contour>
    <contour>
      <point x="24" y="9" type="line"/>
      <point x="73" y="92" type="line"/>
      <point x="60" y="105" type="line"/>
      <point x="11" y="22" type="line"/>
    </contour>
    <contour>
      <point x="179" y="11" type="line"/>
      <point x="191" y="25" type="line"/>
      <point x="63" y="104" type="line"/>
      <point x="52" y="90" type="line"/>
    </contour>
    <contour>
      <point x="342" y="0" type="line"/>
      <point x="566" y="0" type="line"/>
      <point x="566" y="20" type="line"/>
      <point x="342" y="20" type="line"/>
    </contour>
    <contour>
      <point x="341" y="0" type="line"/>
      <point x="360" y="8" type="line"/>
      <point x="81" y="589" type="line"/>
      <point x="63" y="581" type="line"/>
    </contour>
    <contour>
      <point x="11" y="0" type="line"/>
      <point x="192" y="0" type="line"/>
      <point x="192" y="20" type="line"/>
      <point x="11" y="20" type="line"/>
    </contour>
    <contour>
      <point x="10" y="580" type="line"/>
      <point x="271" y="580" type="line"/>
      <point x="271" y="600" type="line"/>
      <point x="10" y="600" type="line"/>
    </contour>
    <contour>
      <point x="129" y="539" type="line"/>
      <point x="275" y="582" type="line"/>
      <point x="260" y="597" type="line"/>
      <point x="118" y="554" type="line"/>
    </contour>
    <contour>
      <point x="401" y="331" type="line"/>
      <point x="399" y="372" type="line"/>
      <point x="271" y="600" type="line"/>
      <point x="252" y="595" type="line"/>
    </contour>
    <contour>
      <point x="387" y="112" type="line"/>
      <point x="407" y="112" type="line"/>
      <point x="407" y="600" type="line"/>
      <point x="387" y="600" type="line"/>
    </contour>
    <contour>
      <point x="51" y="80" type="line"/>
      <point x="71" y="80" type="line"/>
      <point x="71" y="582" type="line"/>
      <point x="51" y="582" type="line"/>
    </contour>
    <contour>
      <point x="387" y="580" type="line"/>
      <point x="568" y="580" type="line"/>
      <point x="568" y="600" type="line"/>
      <point x="387" y="600" type="line"/>
    </contour>
    <contour>
      <point x="437" y="533" type="line"/>
      <point x="553" y="578" type="line"/>
      <point x="544" y="593" type="line"/>
      <point x="427" y="551" type="line"/>
    </contour>
    <contour>
      <point x="356" y="39" type="line"/>
      <point x="369" y="58" type="line"/>
      <point x="129" y="556" type="line"/>
      <point x="111" y="548" type="line"/>
    </contour>
    <contour>
      <point x="120" y="539" type="line"/>
      <point x="131" y="554" type="line"/>
      <point x="75" y="597" type="line"/>
      <point x="64" y="582" type="line"/>
    </contour>
    <contour>
      <point x="436" y="531" type="line"/>
      <point x="446" y="549" type="line"/>
      <point x="400" y="597" type="line"/>
      <point x="391" y="582" type="line"/>
    </contour>
  </outline>
</glyph>
<glyph name="Q" format="2">
  <advance width="490"/>
  <unicode hex="0051"/>
  <outline>
    <contour>
      <point x="160" y="0" type="line"/>
      <point x="164" y="14" type="line"/>
      <point x="19" y="164" type="line"/>
      <point x="5" y="150" type="line"/>
    </contour>
    <contour>
      <point x="25" y="147" type="line"/>
      <point x="58" y="173" type="line"/>
      <point x="52" y="190" type="line"/>
      <point x="19" y="164" type="line"/>
    </contour>
    <contour>
      <point x="172" y="9" type="line"/>
      <point x="144" y="98" type="line"/>
      <point x="123" y="107" type="line"/>
      <point x="151" y="18" type="line"/>
    </contour>
    <contour>
      <point x="160" y="0" type="line"/>
      <point x="187" y="0" type="line"/>
      <point x="187" y="18" type="line"/>
      <point x="160" y="18" type="line"/>
    </contour>
    <contour>
      <point x="135" y="89" type="line"/>
      <point x="139" y="103" type="line"/>
      <point x="59" y="193" type="line"/>
      <point x="45" y="179" type="line"/>
    </contour>
    <contour>
      <point x="5" y="150" type="line"/>
      <point x="25" y="150" type="line"/>
      <point x="25" y="460" type="line"/>
      <point x="5" y="460" type="line"/>
    </contour>
    <contour>
      <point x="60" y="175" type="line"/>
      <point x="205" y="188" type="line"/>
      <point x="199" y="204" type="line"/>
      <point x="54" y="191" type="line"/>
    </contour>
    <contour>
      <point x="135" y="89" type="line"/>
      <point x="235" y="89" type="line"/>
      <point x="235" y="107" type="line"/>
      <point x="135" y="107" type="line"/>
    </contour>
    <contour>
      <point x="135" y="93" type="line"/>
      <point x="230" y="167" type="line"/>
      <point x="217" y="177" type="line"/>
      <point x="122" y="103" type="line"/>
    </contour>
    <contour>
      <point x="323" y="-3" type="line"/>
      <point x="333" y="9" type="line"/>
      <point x="235" y="107" type="line"/>
      <point x="220" y="98" type="line"/>
    </contour>
    <contour>
      <point x="45" y="179" type="line"/>
      <point x="65" y="179" type="line"/>
      <point x="65" y="435" type="line"/>
      <point x="45" y="435" type="line"/>
    </contour>
    <contour>
      <point x="217" y="159" type="line"/>
      <point x="231" y="173" type="line"/>
      <point x="199" y="204" type="line"/>
      <point x="185" y="190" type="line"/>
    </contour>
    <contour>
      <point x="217" y="159" type="line"/>
      <point x="237" y="159" type="line"/>
      <point x="237" y="177" type="line"/>
      <point x="217" y="177" type="line"/>
    </contour>
    <contour>
      <point x="223" y="93" type="line"/>
      <point x="238" y="103" type="line"/>
      <point x="243" y="177" type="line"/>
      <point x="228" y="167" type="line"/>
    </contour>
    <contour>
      <point x="233" y="159" type="line"/>
      <point x="275" y="190" type="line"/>
      <point x="261" y="204" type="line"/>
      <point x="219" y="173" type="line"/>
    </contour>
    <contour>
      <point x="52" y="424" type="line"/>
      <point x="58" y="441" type="line"/>
      <point x="25" y="463" type="line"/>
      <point x="19" y="446" type="line"/>
    </contour>
    <contour>
      <point x="235" y="89" type="line"/>
      <point x="320" y="175" type="line"/>
      <point x="310" y="189" type="line"/>
      <point x="225" y="103" type="line"/>
    </contour>
    <contour>
      <point x="185" y="190" type="line"/>
      <point x="205" y="190" type="line"/>
      <point x="205" y="405" type="line"/>
      <point x="185" y="405" type="line"/>
    </contour>
    <contour>
      <point x="323" y="-3" type="line"/>
      <point x="485" y="150" type="line"/>
      <point x="471" y="164" type="line"/>
      <point x="316" y="17" type="line"/>
    </contour>
    <contour>
      <point x="305" y="171" type="line"/>
      <point x="311" y="187" type="line"/>
      <point x="261" y="204" type="line"/>
      <point x="255" y="188" type="line"/>
    </contour>
    <contour>
      <point x="199" y="391" type="line"/>
      <point x="205" y="407" type="line"/>
      <point x="65" y="437" type="line"/>
      <point x="59" y="421" type="line"/>
    </contour>
    <contour>
      <point x="255" y="190" type="line"/>
      <point x="275" y="190" type="line"/>
      <point x="275" y="405" type="line"/>
      <point x="255" y="405" type="line"/>
    </contour>
    <contour>
      <point x="19" y="446" type="line"/>
      <point x="149" y="586" type="line"/>
      <point x="135" y="600" type="line"/>
      <point x="5" y="460" type="line"/>
    </contour>
    <contour>
      <point x="59" y="421" type="line"/>
      <point x="154" y="512" type="line"/>
      <point x="140" y="526" type="line"/>
      <point x="45" y="435" type="line"/>
    </contour>
    <contour>
      <point x="465" y="147" type="line"/>
      <point x="471" y="164" type="line"/>
      <point x="313" y="186" type="line"/>
      <point x="311" y="169" type="line"/>
    </contour>
    <contour>
      <point x="199" y="391" type="line"/>
      <point x="231" y="422" type="line"/>
      <point x="217" y="436" type="line"/>
      <point x="185" y="405" type="line"/>
    </contour>
    <contour>
      <point x="217" y="418" type="line"/>
      <point x="233" y="418" type="line"/>
      <point x="233" y="436" type="line"/>
      <point x="217" y="436" type="line"/>
    </contour>
    <contour>
      <point x="217" y="418" type="line"/>
      <point x="232" y="428" type="line"/>
      <point x="150" y="520" type="line"/>
      <point x="135" y="510" type="line"/>
    </contour>
    <contour>
      <point x="261" y="391" type="line"/>
      <point x="275" y="405" type="line"/>
      <point x="243" y="436" type="line"/>
      <point x="229" y="422" type="line"/>
    </contour>
    <contour>
      <point x="300" y="175" type="line"/>
      <point x="320" y="175" type="line"/>
      <point x="320" y="435" type="line"/>
      <point x="300" y="435" type="line"/>
    </contour>
    <contour>
      <point x="136" y="509" type="line"/>
      <point x="153" y="515" type="line"/>
      <point x="151" y="586" type="line"/>
      <point x="134" y="580" type="line"/>
    </contour>
    <contour>
      <point x="244" y="418" type="line"/>
      <point x="241" y="510" type="line"/>
      <point x="225" y="520" type="line"/>
      <point x="228" y="428" type="line"/>
    </contour>
    <contour>
      <point x="261" y="391" type="line"/>
      <point x="306" y="421" type="line"/>
      <point x="300" y="437" type="line"/>
      <point x="255" y="407" type="line"/>
    </contour>
    <contour>
      <point x="140" y="508" type="line"/>
      <point x="238" y="508" type="line"/>
      <point x="238" y="526" type="line"/>
      <point x="140" y="526" type="line"/>
    </contour>
    <contour>
      <point x="465" y="150" type="line"/>
      <point x="485" y="150" type="line"/>
      <point x="485" y="460" type="line"/>
      <point x="465" y="460" type="line"/>
    </contour>
    <contour>
      <point x="306" y="421" type="line"/>
      <point x="320" y="435" type="line"/>
      <point x="235" y="526" type="line"/>
      <point x="221" y="512" type="line"/>
    </contour>
    <contour>
      <point x="135" y="582" type="line"/>
      <point x="355" y="582" type="line"/>
      <point x="355" y="600" type="line"/>
      <point x="135" y="600" type="line"/>
    </contour>
    <contour>
      <point x="239" y="509" type="line"/>
      <point x="356" y="580" type="line"/>
      <point x="336" y="588" type="line"/>
      <point x="219" y="517" type="line"/>
    </contour>
    <contour>
      <point x="313" y="424" type="line"/>
      <point x="471" y="446" type="line"/>
      <point x="465" y="463" type="line"/>
      <point x="307" y="441" type="line"/>
    </contour>
    <contour>
      <point x="471" y="446" type="line"/>
      <point x="485" y="460" type="line"/>
      <point x="355" y="600" type="line"/>
      <point x="341" y="586" type="line"/>
    </contour>
    <contour>
      <point x="188" y="3" type="line"/>
      <point x="233" y="95" type="line"/>
      <point x="217" y="102" type="line"/>
      <point x="172" y="10" type="line"/>
    </contour>
    <contour>
      <point x="260" y="-81" type="line"/>
      <point x="357" y="-81" type="line"/>
      <point x="357" y="-63" type="line"/>
      <point x="260" y="-63" type="line"/>
    </contour>
    <contour>
      <point x="345" y="-81" type="line"/>
      <point x="365" y="-81" type="line"/>
      <point x="365" y="42" type="line"/>
      <point x="345" y="32" type="line"/>
    </contour>
    <contour>
      <point x="260" y="-81" type="line"/>
      <point x="275" y="-70" type="line"/>
      <point x="192" y="16" type="line"/>
      <point x="176" y="6" type="line"/>
    </contour>
    <contour>
      <point x="351" y="-79" type="line"/>
      <point x="364" y="-68" type="line"/>
      <point x="224" y="34" type="line"/>
      <point x="223" y="13" type="line"/>
    </contour>
    <contour>
      <point x="192" y="-1" type="line"/>
      <point x="228" y="11" type="line"/>
      <point x="227" y="30" type="line"/>
      <point x="191" y="17" type="line"/>
    </contour>
    <contour>
      <point x="217" y="12" type="line"/>
      <point x="234" y="13" type="line"/>
      <point x="240" y="97" type="line"/>
      <point x="226" y="96" type="line"/>
    </contour>
  </outline>
</glyph>
<glyph name="R" format="2">
  <advance width="535"/>
  <unicode hex="0052"/>
  <anchor x="270" y="0" name="bottom"/>
  <anchor x="270" y="600" name="top"/>
  <outline>
    <contour>
      <point x="10" y="0" type="line"/>
      <point x="220" y="0" type="line"/>
      <point x="220" y="20" type="line"/>
      <point x="10" y="20" type="line"/>
    </contour>
    <contour>
      <point x="10" y="0" type="line"/>
      <point x="30" y="0" type="line"/>
      <point x="30" y="600" type="line"/>
      <point x="10" y="600" type="line"/>
    </contour>
    <contour>
      <point x="200" y="0" type="line"/>
      <point x="220" y="0" type="line"/>
      <point x="220" y="228" type="line"/>
      <point x="200" y="228" type="line"/>
    </contour>
    <contour>
      <point x="14" y="600" type="line"/>
      <point x="34" y="600" type="line"/>
    </contour>
    <contour>
      <point x="23" y="0" type="line"/>
      <point x="76" y="101" type="line"/>
      <point x="63" y="114" type="line"/>
      <point x="10" y="13" type="line"/>
    </contour>
    <contour>
      <point x="207" y="0" type="line"/>
      <point x="220" y="13" type="line"/>
      <point x="77" y="114" type="line"/>
      <point x="65" y="101" type="line"/>
    </contour>
    <contour>
      <point x="57" y="99" type="line"/>
      <point x="77" y="99" type="line"/>
      <point x="77" y="515" type="line"/>
      <point x="57" y="515" type="line"/>
    </contour>
    <contour>
      <point x="295" y="0" type="line"/>
      <point x="315" y="7" type="line"/>
      <point x="232" y="232" type="line"/>
      <point x="214" y="227" type="line"/>
    </contour>
    <contour>
      <point x="296" y="0" type="line"/>
      <point x="513" y="0" type="line"/>
      <point x="513" y="20" type="line"/>
      <point x="296" y="20" type="line"/>
    </contour>
    <contour>
      <point x="509" y="0" type="line"/>
      <point x="530" y="0" type="line"/>
      <point x="414" y="279" type="line"/>
      <point x="394" y="274" type="line"/>
    </contour>
    <contour>
      <point x="486" y="327" type="line"/>
      <point x="506" y="327" type="line"/>
      <point x="506" y="530" type="line"/>
      <point x="486" y="530" type="line"/>
    </contour>
    <contour>
      <point x="409" y="265" type="line"/>
      <point x="506" y="327" type="line"/>
      <point x="496" y="343" type="line"/>
      <point x="399" y="280" type="line"/>
    </contour>
    <contour>
      <point x="297" y="301" type="line"/>
      <point x="352" y="360" type="line"/>
      <point x="339" y="375" type="line"/>
      <point x="287" y="315" type="line"/>
    </contour>
    <contour>
      <point x="61" y="301" type="line"/>
      <point x="304" y="301" type="line"/>
      <point x="304" y="321" type="line"/>
      <point x="61" y="321" type="line"/>
    </contour>
    <contour>
      <point x="14" y="600" type="line"/>
      <point x="14" y="580" type="line"/>
      <point x="373" y="580" type="line"/>
      <point x="373" y="600" type="line"/>
    </contour>
    <contour>
      <point x="57" y="520" type="line"/>
      <point x="57" y="500" type="line"/>
      <point x="273" y="500" type="line"/>
      <point x="273" y="520" type="line"/>
    </contour>
    <contour>
      <point x="346" y="458" type="line"/>
      <point x="498" y="509" type="line"/>
      <point x="491" y="527" type="line"/>
      <point x="338" y="474" type="line"/>
    </contour>
    <contour>
      <point x="282" y="507" type="line"/>
      <point x="375" y="585" type="line"/>
      <point x="362" y="598" type="line"/>
      <point x="266" y="517" type="line"/>
    </contour>
    <contour>
      <point x="498" y="512" type="line"/>
      <point x="506" y="530" type="line"/>
      <point x="373" y="600" type="line"/>
      <point x="360" y="586" type="line"/>
    </contour>
    <contour>
      <point x="341" y="458" type="line"/>
      <point x="349" y="473" type="line"/>
      <point x="274" y="522" type="line"/>
      <point x="265" y="508" type="line"/>
    </contour>
    <contour>
      <point x="334" y="91" type="line"/>
      <point x="353" y="100" type="line"/>
      <point x="281" y="286" type="line"/>
      <point x="265" y="268" type="line"/>
    </contour>
    <contour>
      <point x="288" y="434" type="line"/>
      <point x="284" y="506" type="line"/>
      <point x="265" y="509" type="line"/>
      <point x="270" y="446" type="line"/>
    </contour>
    <contour>
      <point x="220" y="213" type="line"/>
      <point x="235" y="228" type="line"/>
      <point x="76" y="315" type="line"/>
      <point x="63" y="297" type="line"/>
    </contour>
    <contour>
      <point x="231" y="212" type="line"/>
      <point x="307" y="304" type="line"/>
      <point x="296" y="318" type="line"/>
      <point x="220" y="228" type="line"/>
    </contour>
    <contour>
      <point x="334" y="355" type="line"/>
      <point x="492" y="325" type="line"/>
      <point x="496" y="346" type="line"/>
      <point x="338" y="375" type="line"/>
    </contour>
    <contour>
      <point x="297" y="302" type="line"/>
      <point x="404" y="264" type="line"/>
      <point x="412" y="281" type="line"/>
      <point x="305" y="318" type="line"/>
    </contour>
    <contour>
      <point x="199" y="450" type="line"/>
      <point x="199" y="430" type="line"/>
      <point x="280" y="430" type="line"/>
      <point x="280" y="450" type="line"/>
    </contour>
    <contour>
      <point x="219" y="450" type="line"/>
      <point x="199" y="450" type="line"/>
      <point x="199" y="359" type="line"/>
      <point x="219" y="359" type="line"/>
    </contour>
    <contour>
      <point x="60" y="504" type="line"/>
      <point x="204" y="431" type="line"/>
      <point x="216" y="446" type="line"/>
      <point x="68" y="519" type="line"/>
    </contour>
    <contour>
      <point x="199" y="379" type="line"/>
      <point x="199" y="359" type="line"/>
      <point x="280" y="359" type="line"/>
      <point x="280" y="379" type="line"/>
    </contour>
    <contour>
      <point x="352" y="473" type="line"/>
      <point x="332" y="473" type="line"/>
      <point x="332" y="361" type="line"/>
      <point x="352" y="361" type="line"/>
    </contour>
    <contour>
      <point x="308" y="428" type="line"/>
      <point x="288" y="428" type="line"/>
      <point x="288" y="382" type="line"/>
      <point x="308" y="382" type="line"/>
    </contour>
    <contour>
      <point x="70" y="309" type="line"/>
      <point x="217" y="361" type="line"/>
      <point x="210" y="379" type="line"/>
      <point x="62" y="325" type="line"/>
    </contour>
    <contour>
      <point x="268" y="373" type="line"/>
      <point x="280" y="359" type="line"/>
      <point x="306" y="378" type="line"/>
      <point x="293" y="392" type="line"/>
    </contour>
    <contour>
      <point x="268" y="436" type="line"/>
      <point x="288" y="419" type="line"/>
      <point x="306" y="429" type="line"/>
      <point x="280" y="450" type="line"/>
    </contour>
    <contour>
      <point x="335" y="120" type="line"/>
      <point x="296" y="17" type="line"/>
      <point x="313" y="9" type="line"/>
      <point x="349" y="105" type="line"/>
    </contour>
    <contour>
      <point x="502" y="11" type="line"/>
      <point x="513" y="25" type="line"/>
      <point x="344" y="112" type="line"/>
      <point x="337" y="94" type="line"/>
    </contour>
    <contour>
      <point x="260" y="366" type="line"/>
      <point x="292" y="303" type="line"/>
      <point x="307" y="314" type="line"/>
      <point x="276" y="376" type="line"/>
    </contour>
    <contour>
      <point x="296" y="413" type="line"/>
      <point x="346" y="456" type="line"/>
      <point x="336" y="472" type="line"/>
      <point x="290" y="431" type="line"/>
    </contour>
    <contour>
      <point x="300" y="394" type="line"/>
      <point x="291" y="377" type="line"/>
      <point x="338" y="354" type="line"/>
      <point x="346" y="372" type="line"/>
    </contour>
    <contour>
      <point x="66" y="497" type="line"/>
      <point x="79" y="511" type="line"/>
      <point x="34" y="588" type="line"/>
      <point x="20" y="576" type="line"/>
    </contour>
  </outline>
</glyph>
<glyph name="T" format="2">
  <advance width="490"/>
  <unicode hex="0054"/>
  <anchor x="245" y="0" name="bottom"/>
  <anchor x="245" y="300" name="center"/>
  <anchor x="245" y="600" name="top"/>
  <outline>
    <contour>
      <point x="142" y="3" type="line"/>
      <point x="197" y="112" type="line"/>
      <point x="184" y="125" type="line"/>
      <point x="129" y="16" type="line"/>
    </contour>
    <contour>
      <point x="125" y="0" type="line"/>
      <point x="345" y="0" type="line"/>
      <point x="345" y="20" type="line"/>
      <point x="125" y="20" type="line"/>
    </contour>
    <contour>
      <point x="125" y="0" type="line"/>
      <point x="145" y="0" type="line"/>
      <point x="145" y="380" type="line"/>
      <point x="125" y="380" type="line"/>
    </contour>
    <contour>
      <point x="332" y="8" type="line"/>
      <point x="345" y="21" type="line"/>
      <point x="200" y="125" type="line"/>
      <point x="187" y="112" type="line"/>
    </contour>
    <contour>
      <point x="6" y="366" type="line"/>
      <point x="134" y="366" type="line"/>
      <point x="134" y="386" type="line"/>
      <point x="6" y="386" type="line"/>
    </contour>
    <contour>
      <point x="39" y="372" type="line"/>
      <point x="48" y="482" type="line"/>
      <point x="32" y="493" type="line"/>
      <point x="22" y="384" type="line"/>
    </contour>
    <contour>
      <point x="5" y="366" type="line"/>
      <point x="25" y="366" type="line"/>
      <point x="25" y="600" type="line"/>
      <point x="5" y="600" type="line"/>
    </contour>
    <contour>
      <point x="182" y="110" type="line"/>
      <point x="202" y="110" type="line"/>
      <point x="202" y="481" type="line"/>
      <point x="182" y="481" type="line"/>
    </contour>
    <contour>
      <point x="325" y="0" type="line"/>
      <point x="345" y="0" type="line"/>
      <point x="345" y="380" type="line"/>
      <point x="325" y="380" type="line"/>
    </contour>
    <contour>
      <point x="32" y="479" type="line"/>
      <point x="48" y="487" type="line"/>
      <point x="39" y="600" type="line"/>
      <point x="22" y="588" type="line"/>
    </contour>
    <contour>
      <point x="139" y="365" type="line"/>
      <point x="198" y="477" type="line"/>
      <point x="184" y="490" type="line"/>
      <point x="125" y="378" type="line"/>
    </contour>
    <contour>
      <point x="333" y="367" type="line"/>
      <point x="346" y="380" type="line"/>
      <point x="199" y="490" type="line"/>
      <point x="186" y="477" type="line"/>
    </contour>
    <contour>
      <point x="36" y="477" type="line"/>
      <point x="340" y="477" type="line"/>
      <point x="340" y="497" type="line"/>
      <point x="36" y="497" type="line"/>
    </contour>
    <contour>
      <point x="336" y="366" type="line"/>
      <point x="484" y="366" type="line"/>
      <point x="484" y="386" type="line"/>
      <point x="336" y="386" type="line"/>
    </contour>
    <contour>
      <point x="6" y="580" type="line"/>
      <point x="484" y="580" type="line"/>
      <point x="484" y="600" type="line"/>
      <point x="6" y="600" type="line"/>
    </contour>
    <contour>
      <point x="467" y="372" type="line"/>
      <point x="481" y="384" type="line"/>
      <point x="341" y="493" type="line"/>
      <point x="328" y="479" type="line"/>
    </contour>
    <contour>
      <point x="466" y="366" type="line"/>
      <point x="485" y="366" type="line"/>
      <point x="485" y="600" type="line"/>
      <point x="466" y="600" type="line"/>
    </contour>
    <contour>
      <point x="341" y="479" type="line"/>
      <point x="481" y="588" type="line"/>
      <point x="467" y="600" type="line"/>
      <point x="328" y="493" type="line"/>
    </contour>
  </outline>
</glyph>
<glyph name="U" format="2">
  <advance width="475"/>
  <unicode hex="0055"/>
  <anchor x="260" y="0" name="bottom"/>
  <anchor x="312" y="18" name="ogonek"/>
  <anchor x="240" y="600" name="top"/>
  <anchor x="450" y="600" name="topright"/>
  <outline>
    <contour>
      <point x="5" y="600" type="line"/>
      <point x="5" y="173" type="line"/>
      <point x="25" y="173" type="line"/>
      <point x="25" y="600" type="line"/>
    </contour>
    <contour>
      <point x="195" y="600" type="line"/>
      <point x="195" y="203" type="line"/>
      <point x="215" y="203" type="line"/>
      <point x="215" y="600" type="line"/>
    </contour>
    <contour>
      <point x="285" y="600" type="line"/>
      <point x="285" y="203" type="line"/>
      <point x="305" y="203" type="line"/>
      <point x="305" y="600" type="line"/>
    </contour>
    <contour>
      <point x="445" y="600" type="line"/>
      <point x="445" y="174" type="line"/>
      <point x="465" y="174" type="line"/>
      <point x="465" y="600" type="line"/>
    </contour>
    <contour>
      <point x="5" y="600" type="line"/>
      <point x="5" y="580" type="line"/>
      <point x="215" y="580" type="line"/>
      <point x="215" y="600" type="line"/>
    </contour>
    <contour>
      <point x="285" y="600" type="line"/>
      <point x="285" y="580" type="line"/>
      <point x="465" y="580" type="line"/>
      <point x="465" y="600" type="line"/>
    </contour>
    <contour>
      <point x="140" y="20" type="line"/>
      <point x="140" y="0" type="line"/>
      <point x="320" y="0" type="line"/>
      <point x="320" y="20" type="line"/>
    </contour>
    <contour>
      <point x="5" y="174" type="line"/>
      <point x="140" y="0" type="line"/>
      <point x="155" y="13" type="line"/>
      <point x="20" y="188" type="line"/>
    </contour>
    <contour>
      <point x="305" y="13" type="line"/>
      <point x="320" y="0" type="line"/>
      <point x="465" y="174" type="line"/>
      <point x="450" y="188" type="line"/>
    </contour>
    <contour>
      <point x="55" y="500" type="line"/>
      <point x="55" y="183" type="line"/>
      <point x="75" y="183" type="line"/>
      <point x="75" y="500" type="line"/>
    </contour>
    <contour>
      <point x="325" y="520" type="line"/>
      <point x="325" y="194" type="line"/>
      <point x="345" y="194" type="line"/>
      <point x="345" y="520" type="line"/>
    </contour>
    <contour>
      <point x="197" y="595" type="line"/>
      <point x="55" y="500" type="line"/>
      <point x="67" y="484" type="line"/>
      <point x="209" y="579" type="line"/>
    </contour>
    <contour>
      <point x="60" y="484" type="line"/>
      <point x="72" y="500" type="line"/>
      <point x="21" y="597" type="line"/>
      <point x="9" y="581" type="line"/>
    </contour>
    <contour>
      <point x="217" y="185" type="line"/>
      <point x="217" y="165" type="line"/>
      <point x="274" y="165" type="line"/>
      <point x="274" y="185" type="line"/>
    </contour>
    <contour>
      <point x="141" y="103" type="line"/>
      <point x="141" y="83" type="line"/>
      <point x="261" y="83" type="line"/>
      <point x="261" y="103" type="line"/>
    </contour>
    <contour>
      <point x="449" y="598" type="line"/>
      <point x="327" y="523" type="line"/>
      <point x="339" y="507" type="line"/>
      <point x="461" y="582" type="line"/>
    </contour>
    <contour>
      <point x="330" y="504" type="line"/>
      <point x="342" y="520" type="line"/>
      <point x="301" y="597" type="line"/>
      <point x="289" y="581" type="line"/>
    </contour>
    <contour>
      <point x="6" y="193" type="line"/>
      <point x="6" y="173" type="line"/>
      <point x="75" y="173" type="line"/>
      <point x="75" y="193" type="line"/>
    </contour>
    <contour>
      <point x="136" y="95" type="line"/>
      <point x="139" y="16" type="line"/>
      <point x="157" y="5" type="line"/>
      <point x="155" y="94" type="line"/>
    </contour>
    <contour>
      <point x="216" y="181" type="line"/>
      <point x="138" y="100" type="line"/>
      <point x="154" y="89" type="line"/>
      <point x="233" y="170" type="line"/>
    </contour>
    <contour>
      <point x="308" y="7" type="line"/>
      <point x="329" y="12" type="line"/>
      <point x="259" y="96" type="line"/>
      <point x="238" y="91" type="line"/>
    </contour>
    <contour>
      <point x="241" y="92" type="line"/>
      <point x="260" y="98" type="line"/>
      <point x="280" y="183" type="line"/>
      <point x="260" y="178" type="line"/>
    </contour>
    <contour>
      <point x="71" y="196" type="line"/>
      <point x="56" y="183" type="line"/>
      <point x="141" y="83" type="line"/>
      <point x="157" y="96" type="line"/>
    </contour>
    <contour>
      <point x="338" y="206" type="line"/>
      <point x="333" y="187" type="line"/>
      <point x="451" y="164" type="line"/>
      <point x="456" y="185" type="line"/>
    </contour>
    <contour>
      <point x="211" y="215" type="line"/>
      <point x="195" y="203" type="line"/>
      <point x="217" y="165" type="line"/>
      <point x="233" y="177" type="line"/>
    </contour>
    <contour>
      <point x="261" y="83" type="line"/>
      <point x="345" y="194" type="line"/>
      <point x="330" y="207" type="line"/>
      <point x="245" y="96" type="line"/>
    </contour>
    <contour>
      <point x="273" y="165" type="line"/>
      <point x="305" y="203" type="line"/>
      <point x="289" y="215" type="line"/>
      <point x="257" y="177" type="line"/>
    </contour>
    <contour>
      <point x="64" y="174" type="line"/>
      <point x="216" y="199" type="line"/>
      <point x="211" y="218" type="line"/>
      <point x="59" y="193" type="line"/>
    </contour>
    <contour>
      <point x="296" y="221" type="line"/>
      <point x="291" y="202" type="line"/>
      <point x="332" y="188" type="line"/>
      <point x="337" y="207" type="line"/>
    </contour>
  </outline>
</glyph>
<glyph name="V" format="2">
  <advance width="547"/>
  <unicode hex="0056"/>
  <anchor x="274" y="0" name="bottom"/>
  <anchor x="274" y="600" name="top"/>
  <outline>
    <contour>
      <point x="2" y="600" type="line"/>
      <point x="177" y="0" type="line"/>
      <point x="197" y="5" type="line"/>
      <point x="23" y="600" type="line"/>
    </contour>
    <contour>
      <point x="185" y="5" type="line"/>
      <point x="229" y="103" type="line"/>
      <point x="218" y="122" type="line"/>
      <point x="174" y="23" type="line"/>
    </contour>
    <contour>
      <point x="177" y="0" type="line"/>
      <point x="356" y="0" type="line"/>
      <point x="356" y="20" type="line"/>
      <point x="177" y="20" type="line"/>
    </contour>
    <contour>
      <point x="351" y="5" type="line"/>
      <point x="362" y="23" type="line"/>
      <point x="218" y="122" type="line"/>
      <point x="218" y="100" type="line"/>
    </contour>
    <contour>
      <point x="210" y="97" type="line"/>
      <point x="228" y="106" type="line"/>
      <point x="105" y="529" type="line"/>
      <point x="82" y="529" type="line"/>
    </contour>
    <contour>
      <point x="89" y="512" type="line"/>
      <point x="100" y="527" type="line"/>
      <point x="18" y="597" type="line"/>
      <point x="7" y="582" type="line"/>
    </contour>
    <contour>
      <point x="290" y="345" type="line"/>
      <point x="304" y="369" type="line"/>
      <point x="237" y="600" type="line"/>
      <point x="218" y="597" type="line"/>
    </contour>
    <contour>
      <point x="8" y="580" type="line"/>
      <point x="237" y="580" type="line"/>
      <point x="237" y="600" type="line"/>
      <point x="8" y="600" type="line"/>
    </contour>
    <contour>
      <point x="261" y="77" type="line"/>
      <point x="407" y="532" type="line"/>
      <point x="386" y="537" type="line"/>
      <point x="242" y="90" type="line"/>
    </contour>
    <contour>
      <point x="100" y="513" type="line"/>
      <point x="238" y="582" type="line"/>
      <point x="227" y="597" type="line"/>
      <point x="89" y="528" type="line"/>
    </contour>
    <contour>
      <point x="235" y="105" type="line"/>
      <point x="378" y="594" type="line"/>
      <point x="359" y="600" type="line"/>
      <point x="215" y="110" type="line"/>
    </contour>
    <contour>
      <point x="356" y="0" type="line"/>
      <point x="545" y="600" type="line"/>
      <point x="520" y="596" type="line"/>
      <point x="331" y="1" type="line"/>
    </contour>
    <contour>
      <point x="387" y="515" type="line"/>
      <point x="402" y="530" type="line"/>
      <point x="374" y="593" type="line"/>
      <point x="356" y="584" type="line"/>
    </contour>
    <contour>
      <point x="392" y="514" type="line"/>
      <point x="539" y="584" type="line"/>
      <point x="528" y="599" type="line"/>
      <point x="381" y="529" type="line"/>
    </contour>
    <contour>
      <point x="359" y="580" type="line"/>
      <point x="538" y="580" type="line"/>
      <point x="538" y="600" type="line"/>
      <point x="359" y="600" type="line"/>
    </contour>
  </outline>
</glyph>
<glyph name="W" format="2">
  <advance width="897"/>
  <unicode hex="0057"/>
  <anchor x="479" y="0" name="bottom"/>
  <anchor x="479" y="600" name="top"/>
  <outline>
    <contour>
      <point x="178" y="0" type="line"/>
      <point x="198" y="0" type="line"/>
      <point x="22" y="600" type="line"/>
      <point x="2" y="600" type="line"/>
    </contour>
    <contour>
      <point x="8" y="580" type="line"/>
      <point x="241" y="580" type="line"/>
      <point x="236" y="600" type="line"/>
      <point x="2" y="600" type="line"/>
    </contour>
    <contour>
      <point x="293" y="333" type="line"/>
      <point x="305" y="355" type="line"/>
      <point x="236" y="600" type="line"/>
      <point x="215" y="600" type="line"/>
    </contour>
    <contour>
      <point x="213" y="100" type="line"/>
      <point x="232" y="91" type="line"/>
      <point x="388" y="600" type="line"/>
      <point x="368" y="600" type="line"/>
    </contour>
    <contour>
      <point x="178" y="0" type="line"/>
      <point x="351" y="0" type="line"/>
      <point x="351" y="20" type="line"/>
      <point x="178" y="20" type="line"/>
    </contour>
    <contour>
      <point x="209" y="90" type="line"/>
      <point x="227" y="99" type="line"/>
      <point x="101" y="530" type="line"/>
      <point x="81" y="530" type="line"/>
    </contour>
    <contour>
      <point x="351" y="0" type="line"/>
      <point x="447" y="295" type="line"/>
      <point x="435" y="327" type="line"/>
      <point x="331" y="0" type="line"/>
    </contour>
    <contour>
      <point x="98" y="506" type="line"/>
      <point x="235" y="582" type="line"/>
      <point x="223" y="599" type="line"/>
      <point x="87" y="523" type="line"/>
    </contour>
    <contour>
      <point x="193" y="4" type="line"/>
      <point x="227" y="95" type="line"/>
      <point x="211" y="110" type="line"/>
      <point x="177" y="19" type="line"/>
    </contour>
    <contour>
      <point x="343" y="8" type="line"/>
      <point x="354" y="24" type="line"/>
      <point x="222" y="107" type="line"/>
      <point x="211" y="91" type="line"/>
    </contour>
    <contour>
      <point x="516" y="0" type="line"/>
      <point x="537" y="0" type="line"/>
      <point x="380" y="592" type="line"/>
      <point x="367" y="565" type="line"/>
    </contour>
    <contour>
      <point x="709" y="0" type="line"/>
      <point x="895" y="600" type="line"/>
      <point x="873" y="600" type="line"/>
      <point x="688" y="0" type="line"/>
    </contour>
    <contour>
      <point x="523" y="0" type="line"/>
      <point x="707" y="0" type="line"/>
      <point x="707" y="20" type="line"/>
      <point x="523" y="20" type="line"/>
    </contour>
    <contour>
      <point x="610" y="84" type="line"/>
      <point x="758" y="538" type="line"/>
      <point x="739" y="538" type="line"/>
      <point x="591" y="93" type="line"/>
    </contour>
    <contour>
      <point x="693" y="9" type="line"/>
      <point x="708" y="22" type="line"/>
      <point x="602" y="101" type="line"/>
      <point x="588" y="87" type="line"/>
    </contour>
    <contour>
      <point x="374" y="580" type="line"/>
      <point x="580" y="580" type="line"/>
      <point x="575" y="600" type="line"/>
      <point x="368" y="600" type="line"/>
    </contour>
    <contour>
      <point x="642" y="323" type="line"/>
      <point x="653" y="355" type="line"/>
      <point x="583" y="600" type="line"/>
      <point x="563" y="600" type="line"/>
    </contour>
    <contour>
      <point x="551" y="86" type="line"/>
      <point x="563" y="60" type="line"/>
      <point x="735" y="600" type="line"/>
      <point x="712" y="600" type="line"/>
    </contour>
    <contour>
      <point x="550" y="50" type="line"/>
      <point x="567" y="63" type="line"/>
      <point x="445" y="523" type="line"/>
      <point x="421" y="532" type="line"/>
    </contour>
    <contour>
      <point x="718" y="580" type="line"/>
      <point x="869" y="580" type="line"/>
      <point x="875" y="600" type="line"/>
      <point x="725" y="600" type="line"/>
    </contour>
    <contour>
      <point x="433" y="507" type="line"/>
      <point x="583" y="579" type="line"/>
      <point x="572" y="595" type="line"/>
      <point x="422" y="523" type="line"/>
    </contour>
    <contour>
      <point x="746" y="516" type="line"/>
      <point x="870" y="579" type="line"/>
      <point x="859" y="595" type="line"/>
      <point x="738" y="533" type="line"/>
    </contour>
    <contour>
      <point x="97" y="504" type="line"/>
      <point x="108" y="521" type="line"/>
      <point x="33" y="597" type="line"/>
      <point x="22" y="580" type="line"/>
    </contour>
    <contour>
      <point x="433" y="504" type="line"/>
      <point x="445" y="521" type="line"/>
      <point x="385" y="595" type="line"/>
      <point x="373" y="580" type="line"/>
    </contour>
    <contour>
      <point x="737" y="521" type="line"/>
      <point x="755" y="530" type="line"/>
      <point x="734" y="594" type="line"/>
      <point x="719" y="581" type="line"/>
    </contour>
    <contour>
      <point x="266" y="69" type="line"/>
      <point x="401" y="476" type="line"/>
      <point x="387" y="503" type="line"/>
      <point x="249" y="79" type="line"/>
    </contour>
    <contour>
      <point x="604" y="84" type="line"/>
      <point x="597" y="103" type="line"/>
      <point x="520" y="23" type="line"/>
      <point x="530" y="7" type="line"/>
    </contour>
  </outline>
</glyph>
<glyph name="Z" format="2">
  <advance width="538"/>
  <unicode hex="005A"/>
  <anchor x="269" y="0" name="bottom"/>
  <anchor x="269" y="300" name="center"/>
  <anchor x="269" y="600" name="top"/>
  <outline>
    <contour>
      <point x="11" y="20" type="line"/>
      <point x="530" y="20" type="line"/>
    </contour>
    <contour>
      <point x="533" y="0" type="line"/>
      <point x="533" y="238" type="line"/>
      <point x="513" y="238" type="line"/>
      <point x="513" y="0" type="line"/>
    </contour>
    <contour>
      <point x="316" y="222" type="line"/>
      <point x="533" y="222" type="line"/>
      <point x="533" y="241" type="line"/>
      <point x="323" y="241" type="line"/>
    </contour>
    <contour>
      <point x="365" y="124" type="line"/>
      <point x="529" y="225" type="line"/>
      <point x="517" y="240" type="line"/>
      <point x="351" y="138" type="line"/>
    </contour>
    <contour>
      <point x="507" y="13" type="line"/>
      <point x="521" y="27" type="line"/>
      <point x="370" y="142" type="line"/>
      <point x="355" y="128" type="line"/>
    </contour>
    <contour>
      <point x="116" y="125" type="line"/>
      <point x="375" y="125" type="line"/>
      <point x="375" y="145" type="line"/>
      <point x="116" y="145" type="line"/>
    </contour>
    <contour>
      <point x="127" y="130" type="line"/>
      <point x="338" y="227" type="line"/>
      <point x="327" y="243" type="line"/>
      <point x="117" y="146" type="line"/>
    </contour>
    <contour>
      <point x="31" y="7" type="line"/>
      <point x="139" y="141" type="line"/>
      <point x="126" y="159" type="line"/>
      <point x="18" y="24" type="line"/>
    </contour>
    <contour>
      <point x="19" y="0" type="line"/>
      <point x="203" y="371" type="line"/>
      <point x="181" y="372" type="line"/>
      <point x="-3" y="0" type="line"/>
    </contour>
    <contour>
      <point x="6" y="580" type="line"/>
      <point x="517" y="580" type="line"/>
      <point x="517" y="600" type="line"/>
      <point x="6" y="600" type="line"/>
    </contour>
    <contour>
      <point x="6" y="0" type="line"/>
      <point x="530" y="0" type="line"/>
      <point x="530" y="20" type="line"/>
      <point x="13" y="20" type="line"/>
    </contour>
    <contour>
      <point x="334" y="224" type="line"/>
      <point x="529" y="600" type="line"/>
      <point x="507" y="600" type="line"/>
      <point x="316" y="232" type="line"/>
    </contour>
    <contour>
      <point x="25" y="365" type="line"/>
      <point x="25" y="600" type="line"/>
      <point x="5" y="600" type="line"/>
      <point x="5" y="365" type="line"/>
    </contour>
    <contour>
      <point x="10" y="365" type="line"/>
      <point x="195" y="365" type="line"/>
      <point x="195" y="382" type="line"/>
      <point x="10" y="382" type="line"/>
    </contour>
    <contour>
      <point x="195" y="360" type="line"/>
      <point x="296" y="479" type="line"/>
      <point x="286" y="494" type="line"/>
      <point x="180" y="374" type="line"/>
    </contour>
    <contour>
      <point x="40" y="479" type="line"/>
      <point x="299" y="479" type="line"/>
      <point x="299" y="499" type="line"/>
      <point x="40" y="499" type="line"/>
    </contour>
    <contour>
      <point x="24" y="365" type="line"/>
      <point x="51" y="490" type="line"/>
      <point x="35" y="498" type="line"/>
      <point x="9" y="375" type="line"/>
    </contour>
    <contour>
      <point x="133" y="135" type="line"/>
      <point x="311" y="491" type="line"/>
      <point x="293" y="498" type="line"/>
      <point x="117" y="146" type="line"/>
    </contour>
    <contour>
      <point x="298" y="478" type="line"/>
      <point x="517" y="580" type="line"/>
      <point x="502" y="599" type="line"/>
      <point x="287" y="495" type="line"/>
    </contour>
    <contour>
      <point x="35" y="478" type="line"/>
      <point x="49" y="491" type="line"/>
      <point x="19" y="593" type="line"/>
      <point x="6" y="581" type="line"/>
    </contour>
  </outline>
</glyph>
<glyph name="exclamdown" format="2">
  <advance width="240"/>
  <unicode hex="00A1"/>
  <outline>
    <contour>
      <point x="10" y="0" type="line"/>
      <point x="30" y="0" type="line"/>
      <point x="95" y="410" type="line"/>
      <point x="75" y="410" type="line"/>
    </contour>
    <contour>
      <point x="31" y="5" type="line"/>
      <point x="89" y="89" type="line"/>
      <point x="76" y="104" type="line"/>
      <point x="18" y="20" type="line"/>
    </contour>
    <contour>
      <point x="19" y="0" type="line"/>
      <point x="220" y="0" type="line"/>
      <point x="220" y="20" type="line"/>
      <point x="19" y="20" type="line"/>
    </contour>
    <contour>
      <point x="208" y="5" type="line"/>
      <point x="221" y="20" type="line"/>
      <point x="91" y="104" type="line"/>
      <point x="78" y="89" type="line"/>
    </contour>
    <contour>
      <point x="74" y="87" type="line"/>
      <point x="94" y="87" type="line"/>
      <point x="94" y="400" type="line"/>
      <point x="74" y="400" type="line"/>
    </contour>
    <contour>
      <point x="210" y="0" type="line"/>
      <point x="230" y="0" type="line"/>
      <point x="166" y="410" type="line"/>
      <point x="146" y="410" type="line"/>
    </contour>
    <contour>
      <point x="75" y="390" type="line"/>
      <point x="166" y="390" type="line"/>
      <point x="166" y="410" type="line"/>
      <point x="75" y="410" type="line"/>
    </contour>
    <contour>
      <point x="51" y="435" type="line"/>
      <point x="79" y="504" type="line"/>
      <point x="67" y="524" type="line"/>
      <point x="37" y="449" type="line"/>
    </contour>
    <contour>
      <point x="37" y="435" type="line"/>
      <point x="57" y="435" type="line"/>
      <point x="57" y="600" type="line"/>
      <point x="37" y="600" type="line"/>
    </contour>
    <contour>
      <point x="40" y="435" type="line"/>
      <point x="202" y="435" type="line"/>
      <point x="202" y="453" type="line"/>
      <point x="40" y="453" type="line"/>
    </contour>
    <contour>
      <point x="66" y="511" type="line"/>
      <point x="78" y="531" type="line"/>
      <point x="51" y="600" type="line"/>
      <point x="37" y="586" type="line"/>
    </contour>
    <contour>
      <point x="187" y="435" type="line"/>
      <point x="201" y="449" type="line"/>
      <point x="81" y="524" type="line"/>
      <point x="72" y="504" type="line"/>
    </contour>
    <contour>
      <point x="66" y="509" type="line"/>
      <point x="82" y="509" type="line"/>
      <point x="82" y="526" type="line"/>
      <point x="66" y="526" type="line"/>
    </contour>
    <contour>
      <point x="182" y="435" type="line"/>
      <point x="202" y="435" type="line"/>
      <point x="202" y="600" type="line"/>
      <point x="182" y="600" type="line"/>
    </contour>
    <contour>
      <point x="37" y="582" type="line"/>
      <point x="202" y="582" type="line"/>
      <point x="202" y="600" type="line"/>
      <point x="37" y="600" type="line"/>
    </contour>
    <contour>
      <point x="81" y="510" type="line"/>
      <point x="202" y="586" type="line"/>
      <point x="188" y="600" type="line"/>
      <point x="72" y="530" type="line"/>
    </contour>
  </outline>
</glyph>
<glyph name="questiondown" format="2">
  <advance width="401"/>
  <unicode hex="00BF"/>
  <outline>
    <contour>
      <point x="176" y="290" type="line"/>
      <point x="33" y="200" type="line"/>
      <point x="43" y="184" type="line"/>
      <point x="186" y="275" type="line"/>
    </contour>
    <contour>
      <point x="140" y="322" type="line"/>
      <point x="5" y="239" type="line"/>
      <point x="17" y="223" type="line"/>
      <point x="152" y="306" type="line"/>
    </contour>
    <contour>
      <point x="160" y="410" type="line"/>
      <point x="136" y="304" type="line"/>
      <point x="156" y="304" type="line"/>
      <point x="180" y="410" type="line"/>
    </contour>
    <contour>
      <point x="5" y="239" type="line"/>
      <point x="5" y="85" type="line"/>
      <point x="25" y="85" type="line"/>
      <point x="25" y="239" type="line"/>
    </contour>
    <contour>
      <point x="232" y="410" type="line"/>
      <point x="166" y="410" type="line"/>
      <point x="166" y="391" type="line"/>
      <point x="232" y="391" type="line"/>
    </contour>
    <contour>
      <point x="167" y="403" type="line"/>
      <point x="167" y="275" type="line"/>
      <point x="187" y="275" type="line"/>
      <point x="187" y="403" type="line"/>
    </contour>
    <contour>
      <point x="31" y="196" type="line"/>
      <point x="31" y="112" type="line"/>
      <point x="51" y="112" type="line"/>
      <point x="51" y="196" type="line"/>
    </contour>
    <contour>
      <point x="49" y="200" type="line"/>
      <point x="43" y="182" type="line"/>
      <point x="188" y="182" type="line"/>
      <point x="186" y="200" type="line"/>
    </contour>
    <contour>
      <point x="184" y="170" type="line"/>
      <point x="41" y="128" type="line"/>
      <point x="45" y="111" type="line"/>
      <point x="187" y="153" type="line"/>
    </contour>
    <contour>
      <point x="16" y="101" type="line"/>
      <point x="5" y="85" type="line"/>
      <point x="121" y="0" type="line"/>
      <point x="133" y="16" type="line"/>
    </contour>
    <contour>
      <point x="170" y="291" type="line"/>
      <point x="172" y="271" type="line"/>
      <point x="257" y="271" type="line"/>
      <point x="256" y="291" type="line"/>
    </contour>
    <contour>
      <point x="227" y="410" type="line"/>
      <point x="246" y="276" type="line"/>
      <point x="266" y="275" type="line"/>
      <point x="247" y="410" type="line"/>
    </contour>
    <contour>
      <point x="173" y="196" type="line"/>
      <point x="173" y="152" type="line"/>
      <point x="193" y="152" type="line"/>
      <point x="193" y="196" type="line"/>
    </contour>
    <contour>
      <point x="43" y="127" type="line"/>
      <point x="31" y="112" type="line"/>
      <point x="106" y="56" type="line"/>
      <point x="118" y="71" type="line"/>
    </contour>
    <contour>
      <point x="256" y="291" type="line"/>
      <point x="173" y="197" type="line"/>
      <point x="183" y="181" type="line"/>
      <point x="266" y="275" type="line"/>
    </contour>
    <contour>
      <point x="186" y="168" type="line"/>
      <point x="175" y="153" type="line"/>
      <point x="194" y="133" type="line"/>
      <point x="211" y="148" type="line"/>
    </contour>
    <contour>
      <point x="193" y="154" type="line"/>
      <point x="193" y="133" type="line"/>
      <point x="231" y="133" type="line"/>
      <point x="231" y="154" type="line"/>
    </contour>
    <contour>
      <point x="242" y="194" type="line"/>
      <point x="242" y="156" type="line"/>
      <point x="262" y="156" type="line"/>
      <point x="262" y="194" type="line"/>
    </contour>
    <contour>
      <point x="253" y="171" type="line"/>
      <point x="216" y="144" type="line"/>
      <point x="227" y="129" type="line"/>
      <point x="264" y="156" type="line"/>
    </contour>
    <contour>
      <point x="218" y="147" type="line"/>
      <point x="191" y="69" type="line"/>
      <point x="208" y="64" type="line"/>
      <point x="235" y="145" type="line"/>
    </contour>
    <contour>
      <point x="108" y="76" type="line"/>
      <point x="106" y="56" type="line"/>
      <point x="213" y="56" type="line"/>
      <point x="213" y="76" type="line"/>
    </contour>
    <contour>
      <point x="242" y="209" type="line"/>
      <point x="242" y="189" type="line"/>
      <point x="396" y="189" type="line"/>
      <point x="396" y="209" type="line"/>
    </contour>
    <contour>
      <point x="268" y="137" type="line"/>
      <point x="198" y="70" type="line"/>
      <point x="210" y="58" type="line"/>
      <point x="283" y="127" type="line"/>
    </contour>
    <contour>
      <point x="121" y="20" type="line"/>
      <point x="121" y="0" type="line"/>
      <point x="287" y="0" type="line"/>
      <point x="284" y="20" type="line"/>
    </contour>
    <contour>
      <point x="270" y="122" type="line"/>
      <point x="380" y="99" type="line"/>
      <point x="387" y="115" type="line"/>
      <point x="280" y="138" type="line"/>
    </contour>
    <contour>
      <point x="209" y="77" type="line"/>
      <point x="196" y="65" type="line"/>
      <point x="273" y="4" type="line"/>
      <point x="293" y="11" type="line"/>
    </contour>
    <contour>
      <point x="376" y="189" type="line"/>
      <point x="376" y="107" type="line"/>
      <point x="396" y="104" type="line"/>
      <point x="396" y="189" type="line"/>
    </contour>
    <contour>
      <point x="386" y="122" type="line"/>
      <point x="274" y="15" type="line"/>
      <point x="287" y="0" type="line"/>
      <point x="396" y="104" type="line"/>
    </contour>
    <contour>
      <point x="280" y="138" type="line"/>
      <point x="257" y="168" type="line"/>
      <point x="246" y="153" type="line"/>
      <point x="270" y="122" type="line"/>
    </contour>
    <contour>
      <point x="42" y="134" type="line"/>
      <point x="11" y="105" type="line"/>
      <point x="21" y="87" type="line"/>
      <point x="45" y="110" type="line"/>
    </contour>
    <contour>
      <point x="18" y="241" type="line"/>
      <point x="12" y="224" type="line"/>
      <point x="38" y="181" type="line"/>
      <point x="48" y="199" type="line"/>
    </contour>
    <contour>
      <point x="144" y="326" type="line"/>
      <point x="138" y="308" type="line"/>
      <point x="166" y="273" type="line"/>
      <point x="172" y="290" type="line"/>
    </contour>
    <contour>
      <point x="178" y="410" type="line"/>
      <point x="164" y="410" type="line"/>
      <point x="164" y="391" type="line"/>
      <point x="178" y="391" type="line"/>
    </contour>
    <contour>
      <point x="286" y="600" type="line"/>
      <point x="121" y="600" type="line"/>
      <point x="121" y="582" type="line"/>
      <point x="286" y="582" type="line"/>
    </contour>
    <contour>
      <point x="272" y="600" type="line"/>
      <point x="156" y="531" type="line"/>
      <point x="165" y="511" type="line"/>
      <point x="286" y="586" type="line"/>
    </contour>
    <contour>
      <point x="135" y="600" type="line"/>
      <point x="121" y="586" type="line"/>
      <point x="150" y="510" type="line"/>
      <point x="162" y="530" type="line"/>
    </contour>
    <contour>
      <point x="286" y="600" type="line"/>
      <point x="266" y="600" type="line"/>
      <point x="266" y="435" type="line"/>
      <point x="286" y="435" type="line"/>
    </contour>
    <contour>
      <point x="165" y="526" type="line"/>
      <point x="149" y="526" type="line"/>
      <point x="149" y="509" type="line"/>
      <point x="165" y="509" type="line"/>
    </contour>
    <contour>
      <point x="141" y="600" type="line"/>
      <point x="121" y="600" type="line"/>
      <point x="121" y="435" type="line"/>
      <point x="141" y="435" type="line"/>
    </contour>
    <contour>
      <point x="164" y="524" type="line"/>
      <point x="155" y="504" type="line"/>
      <point x="272" y="435" type="line"/>
      <point x="286" y="449" type="line"/>
    </contour>
    <contour>
      <point x="283" y="453" type="line"/>
      <point x="121" y="453" type="line"/>
      <point x="121" y="435" type="line"/>
      <point x="283" y="435" type="line"/>
    </contour>
    <contour>
      <point x="150" y="524" type="line"/>
      <point x="122" y="449" type="line"/>
      <point x="136" y="435" type="line"/>
      <point x="162" y="504" type="line"/>
    </contour>
    <contour>
      <point x="191" y="151" type="line"/>
      <point x="99" y="67" type="line"/>
      <point x="117" y="61" type="line"/>
      <point x="205" y="141" type="line"/>
    </contour>
    <contour>
      <point x="102" y="69" type="line"/>
      <point x="108" y="15" type="line"/>
      <point x="126" y="9" type="line"/>
      <point x="121" y="68" type="line"/>
    </contour>
  </outline>
</glyph>
<glyph name="Eth" format="2">
  <advance width="553"/>
  <unicode hex="00D0"/>
  <outline>
    <contour>
      <point x="234" y="428" type="line"/>
      <point x="247" y="444" type="line"/>
      <point x="112" y="524" type="line"/>
      <point x="102" y="507" type="line"/>
    </contour>
    <contour>
      <point x="55" y="7" type="line"/>
      <point x="116" y="108" type="line"/>
      <point x="91" y="111" type="line"/>
      <point x="36" y="16" type="line"/>
    </contour>
    <contour>
      <point x="51" y="0" type="line"/>
      <point x="382" y="0" type="line"/>
      <point x="387" y="20" type="line"/>
      <point x="51" y="20" type="line"/>
    </contour>
    <contour>
      <point x="33" y="385" type="line"/>
      <point x="52" y="385" type="line"/>
      <point x="52" y="600" type="line"/>
      <point x="33" y="600" type="line"/>
    </contour>
    <contour>
      <point x="119" y="106" type="line"/>
      <point x="260" y="180" type="line"/>
      <point x="232" y="185" type="line"/>
      <point x="93" y="112" type="line"/>
    </contour>
    <contour>
      <point x="107" y="95" type="line"/>
      <point x="308" y="95" type="line"/>
      <point x="308" y="113" type="line"/>
      <point x="107" y="113" type="line"/>
    </contour>
    <contour>
      <point x="89" y="95" type="line"/>
      <point x="109" y="95" type="line"/>
      <point x="109" y="519" type="line"/>
      <point x="89" y="519" type="line"/>
    </contour>
    <contour>
      <point x="231" y="168" type="line"/>
      <point x="301" y="168" type="line"/>
      <point x="301" y="187" type="line"/>
      <point x="231" y="187" type="line"/>
    </contour>
    <contour>
      <point x="369" y="9" type="line"/>
      <point x="389" y="16" type="line"/>
      <point x="306" y="107" type="line"/>
      <point x="289" y="98" type="line"/>
    </contour>
    <contour>
      <point x="291" y="98" type="line"/>
      <point x="308" y="108" type="line"/>
      <point x="308" y="185" type="line"/>
      <point x="293" y="175" type="line"/>
    </contour>
    <contour>
      <point x="307" y="172" type="line"/>
      <point x="345" y="211" type="line"/>
      <point x="330" y="223" type="line"/>
      <point x="292" y="184" type="line"/>
    </contour>
    <contour>
      <point x="231" y="380" type="line"/>
      <point x="251" y="380" type="line"/>
      <point x="251" y="432" type="line"/>
      <point x="231" y="432" type="line"/>
    </contour>
    <contour>
      <point x="302" y="94" type="line"/>
      <point x="404" y="184" type="line"/>
      <point x="386" y="193" type="line"/>
      <point x="290" y="109" type="line"/>
    </contour>
    <contour>
      <point x="382" y="0" type="line"/>
      <point x="548" y="146" type="line"/>
      <point x="528" y="155" type="line"/>
      <point x="368" y="14" type="line"/>
    </contour>
    <contour>
      <point x="390" y="178" type="line"/>
      <point x="402" y="195" type="line"/>
      <point x="332" y="225" type="line"/>
      <point x="328" y="208" type="line"/>
    </contour>
    <contour>
      <point x="328" y="208" type="line"/>
      <point x="348" y="210" type="line"/>
      <point x="348" y="405" type="line"/>
      <point x="328" y="405" type="line"/>
    </contour>
    <contour>
      <point x="530" y="140" type="line"/>
      <point x="541" y="158" type="line"/>
      <point x="398" y="197" type="line"/>
      <point x="392" y="179" type="line"/>
    </contour>
    <contour>
      <point x="233" y="429" type="line"/>
      <point x="299" y="429" type="line"/>
      <point x="299" y="448" type="line"/>
      <point x="233" y="448" type="line"/>
    </contour>
    <contour>
      <point x="335" y="391" type="line"/>
      <point x="349" y="406" type="line"/>
      <point x="302" y="447" type="line"/>
      <point x="290" y="432" type="line"/>
    </contour>
    <contour>
      <point x="92" y="510" type="line"/>
      <point x="287" y="510" type="line"/>
      <point x="287" y="526" type="line"/>
      <point x="92" y="526" type="line"/>
    </contour>
    <contour>
      <point x="384" y="184" type="line"/>
      <point x="404" y="184" type="line"/>
      <point x="404" y="434" type="line"/>
      <point x="384" y="434" type="line"/>
    </contour>
    <contour>
      <point x="304" y="432" type="line"/>
      <point x="298" y="518" type="line"/>
      <point x="280" y="526" type="line"/>
      <point x="286" y="439" type="line"/>
    </contour>
    <contour>
      <point x="49" y="580" type="line"/>
      <point x="389" y="580" type="line"/>
      <point x="393" y="600" type="line"/>
      <point x="49" y="600" type="line"/>
    </contour>
    <contour>
      <point x="335" y="387" type="line"/>
      <point x="397" y="427" type="line"/>
      <point x="383" y="442" type="line"/>
      <point x="329" y="404" type="line"/>
    </contour>
    <contour>
      <point x="395" y="419" type="line"/>
      <point x="405" y="434" type="line"/>
      <point x="295" y="523" type="line"/>
      <point x="284" y="510" type="line"/>
    </contour>
    <contour>
      <point x="548" y="146" type="line"/>
      <point x="548" y="469" type="line"/>
      <point x="528" y="460" type="line"/>
      <point x="528" y="150" type="line"/>
    </contour>
    <contour>
      <point x="295" y="514" type="line"/>
      <point x="391" y="580" type="line"/>
      <point x="371" y="586" type="line"/>
      <point x="279" y="524" type="line"/>
    </contour>
    <contour>
      <point x="398" y="426" type="line"/>
      <point x="531" y="457" type="line"/>
      <point x="525" y="476" type="line"/>
      <point x="388" y="443" type="line"/>
    </contour>
    <contour>
      <point x="529" y="459" type="line"/>
      <point x="548" y="469" type="line"/>
      <point x="392" y="600" type="line"/>
      <point x="380" y="585" type="line"/>
    </contour>
    <contour>
      <point x="91" y="509" type="line"/>
      <point x="104" y="525" type="line"/>
      <point x="50" y="592" type="line"/>
      <point x="40" y="575" type="line"/>
    </contour>
    <contour>
      <point x="18" y="302" type="line"/>
      <point x="33" y="312" type="line"/>
      <point x="21" y="394" type="line"/>
      <point x="7" y="383" type="line"/>
    </contour>
    <contour>
      <point x="5" y="221" type="line"/>
      <point x="24" y="221" type="line"/>
      <point x="24" y="394" type="line"/>
      <point x="5" y="394" type="line"/>
    </contour>
    <contour>
      <point x="18" y="313" type="line"/>
      <point x="7" y="232" type="line"/>
      <point x="21" y="221" type="line"/>
      <point x="33" y="303" type="line"/>
    </contour>
    <contour>
      <point x="45" y="394" type="line"/>
      <point x="7" y="394" type="line"/>
      <point x="7" y="373" type="line"/>
      <point x="45" y="373" type="line"/>
    </contour>
    <contour>
      <point x="103" y="316" type="line"/>
      <point x="16" y="316" type="line"/>
      <point x="16" y="299" type="line"/>
      <point x="103" y="299" type="line"/>
    </contour>
    <contour>
      <point x="45" y="242" type="line"/>
      <point x="7" y="242" type="line"/>
      <point x="7" y="221" type="line"/>
      <point x="45" y="221" type="line"/>
    </contour>
    <contour>
      <point x="179" y="302" type="line"/>
      <point x="290" y="383" type="line"/>
      <point x="273" y="394" type="line"/>
      <point x="161" y="312" type="line"/>
    </contour>
    <contour>
      <point x="292" y="221" type="line"/>
      <point x="292" y="394" type="line"/>
      <point x="273" y="394" type="line"/>
      <point x="273" y="221" type="line"/>
    </contour>
    <contour>
      <point x="179" y="313" type="line"/>
      <point x="161" y="303" type="line"/>
      <point x="273" y="221" type="line"/>
      <point x="290" y="232" type="line"/>
    </contour>
    <contour>
      <point x="242" y="394" type="line"/>
      <point x="232" y="373" type="line"/>
      <point x="290" y="373" type="line"/>
      <point x="290" y="394" type="line"/>
    </contour>
    <contour>
      <point x="95" y="316" type="line"/>
      <point x="95" y="299" type="line"/>
      <point x="181" y="299" type="line"/>
      <point x="181" y="316" type="line"/>
    </contour>
    <contour>
      <point x="231" y="242" type="line"/>
      <point x="231" y="221" type="line"/>
      <point x="290" y="221" type="line"/>
      <point x="290" y="242" type="line"/>
    </contour>
    <contour>
      <point x="91" y="302" type="line"/>
      <point x="103" y="314" type="line"/>
      <point x="45" y="394" type="line"/>
      <point x="29" y="381" type="line"/>
    </contour>
    <contour>
      <point x="91" y="313" type="line"/>
      <point x="29" y="234" type="line"/>
      <point x="45" y="221" type="line"/>
      <point x="103" y="301" type="line"/>
    </contour>
    <contour>
      <point x="33" y="0" type="line"/>
      <point x="52" y="0" type="line"/>
      <point x="52" y="237" type="line"/>
      <point x="33" y="237" type="line"/>
    </contour>
    <contour>
      <point x="108" y="300" type="line"/>
      <point x="258" y="381" type="line"/>
      <point x="242" y="394" type="line"/>
      <point x="95" y="314" type="line"/>
    </contour>
    <contour>
      <point x="108" y="315" type="line"/>
      <point x="95" y="301" type="line"/>
      <point x="242" y="221" type="line"/>
      <point x="258" y="234" type="line"/>
    </contour>
    <contour>
      <point x="231" y="180" type="line"/>
      <point x="251" y="180" type="line"/>
      <point x="251" y="232" type="line"/>
      <point x="231" y="232" type="line"/>
    </contour>
  </outline>
</glyph>
<glyph name="Oslash" format="2">
  <advance width="488"/>
  <unicode hex="00D8"/>
  <anchor x="244" y="0" name="bottom"/>
  <anchor x="244" y="600" name="top"/>
  <outline>
    <contour>
      <point x="56" y="102" type="line"/>
      <point x="68" y="118" type="line"/>
      <point x="19" y="164" type="line"/>
      <point x="5" y="150" type="line"/>
    </contour>
    <contour>
      <point x="25" y="147" type="line"/>
      <point x="58" y="149" type="line"/>
      <point x="52" y="166" type="line"/>
      <point x="19" y="164" type="line"/>
    </contour>
    <contour>
      <point x="166" y="0" type="line"/>
      <point x="202" y="96" type="line"/>
      <point x="187" y="105" type="line"/>
      <point x="145" y="0" type="line"/>
    </contour>
    <contour>
      <point x="188" y="0" type="line"/>
      <point x="325" y="0" type="line"/>
      <point x="325" y="18" type="line"/>
      <point x="188" y="18" type="line"/>
    </contour>
    <contour>
      <point x="193" y="89" type="line"/>
      <point x="207" y="103" type="line"/>
      <point x="59" y="169" type="line"/>
      <point x="45" y="155" type="line"/>
    </contour>
    <contour>
      <point x="5" y="150" type="line"/>
      <point x="25" y="150" type="line"/>
      <point x="25" y="460" type="line"/>
      <point x="5" y="460" type="line"/>
    </contour>
    <contour>
      <point x="193" y="89" type="line"/>
      <point x="237" y="89" type="line"/>
      <point x="237" y="107" type="line"/>
      <point x="193" y="107" type="line"/>
    </contour>
    <contour>
      <point x="313" y="9" type="line"/>
      <point x="328" y="18" type="line"/>
      <point x="240" y="107" type="line"/>
      <point x="225" y="98" type="line"/>
    </contour>
    <contour>
      <point x="45" y="155" type="line"/>
      <point x="65" y="155" type="line"/>
      <point x="65" y="435" type="line"/>
      <point x="45" y="435" type="line"/>
    </contour>
    <contour>
      <point x="226" y="100" type="line"/>
      <point x="243" y="103" type="line"/>
      <point x="243" y="187" type="line"/>
      <point x="224" y="177" type="line"/>
    </contour>
    <contour>
      <point x="52" y="424" type="line"/>
      <point x="58" y="441" type="line"/>
      <point x="25" y="463" type="line"/>
      <point x="19" y="446" type="line"/>
    </contour>
    <contour>
      <point x="240" y="89" type="line"/>
      <point x="325" y="175" type="line"/>
      <point x="311" y="189" type="line"/>
      <point x="226" y="103" type="line"/>
    </contour>
    <contour>
      <point x="325" y="0" type="line"/>
      <point x="483" y="150" type="line"/>
      <point x="469" y="164" type="line"/>
      <point x="311" y="14" type="line"/>
    </contour>
    <contour>
      <point x="310" y="171" type="line"/>
      <point x="316" y="187" type="line"/>
      <point x="241" y="193" type="line"/>
      <point x="235" y="177" type="line"/>
    </contour>
    <contour>
      <point x="185" y="405" type="line"/>
      <point x="180" y="424" type="line"/>
      <point x="65" y="437" type="line"/>
      <point x="59" y="421" type="line"/>
    </contour>
    <contour>
      <point x="19" y="446" type="line"/>
      <point x="149" y="586" type="line"/>
      <point x="135" y="600" type="line"/>
      <point x="5" y="460" type="line"/>
    </contour>
    <contour>
      <point x="59" y="421" type="line"/>
      <point x="154" y="512" type="line"/>
      <point x="140" y="526" type="line"/>
      <point x="45" y="435" type="line"/>
    </contour>
    <contour>
      <point x="463" y="147" type="line"/>
      <point x="469" y="164" type="line"/>
      <point x="318" y="186" type="line"/>
      <point x="312" y="169" type="line"/>
    </contour>
    <contour>
      <point x="179" y="416" type="line"/>
      <point x="198" y="426" type="line"/>
      <point x="150" y="520" type="line"/>
      <point x="135" y="510" type="line"/>
    </contour>
    <contour>
      <point x="305" y="175" type="line"/>
      <point x="325" y="175" type="line"/>
      <point x="325" y="455" type="line"/>
      <point x="305" y="455" type="line"/>
    </contour>
    <contour>
      <point x="136" y="509" type="line"/>
      <point x="153" y="515" type="line"/>
      <point x="151" y="586" type="line"/>
      <point x="134" y="580" type="line"/>
    </contour>
    <contour>
      <point x="140" y="508" type="line"/>
      <point x="243" y="508" type="line"/>
      <point x="243" y="526" type="line"/>
      <point x="140" y="526" type="line"/>
    </contour>
    <contour>
      <point x="463" y="150" type="line"/>
      <point x="483" y="150" type="line"/>
      <point x="483" y="461" type="line"/>
      <point x="463" y="461" type="line"/>
    </contour>
    <contour>
      <point x="318" y="444" type="line"/>
      <point x="469" y="446" type="line"/>
      <point x="463" y="463" type="line"/>
      <point x="312" y="461" type="line"/>
    </contour>
    <contour>
      <point x="158" y="19" type="line"/>
      <point x="30" y="19" type="line"/>
      <point x="13" y="0" type="line"/>
      <point x="158" y="0" type="line"/>
    </contour>
    <contour>
      <point x="71" y="109" type="line"/>
      <point x="57" y="121" type="line"/>
      <point x="-2" y="0" type="line"/>
      <point x="20" y="0" type="line"/>
    </contour>
    <contour>
      <point x="107" y="136" type="line"/>
      <point x="89" y="139" type="line"/>
      <point x="52" y="57" type="line"/>
      <point x="73" y="57" type="line"/>
    </contour>
    <contour>
      <point x="66" y="101" type="line"/>
      <point x="93" y="138" type="line"/>
      <point x="79" y="146" type="line"/>
      <point x="55" y="114" type="line"/>
    </contour>
    <contour>
      <point x="73" y="76" type="line"/>
      <point x="61" y="61" type="line"/>
      <point x="150" y="0" type="line"/>
      <point x="154" y="15" type="line"/>
    </contour>
    <contour>
      <point x="68" y="77" type="line"/>
      <point x="17" y="16" type="line"/>
      <point x="16" y="0" type="line"/>
      <point x="75" y="62" type="line"/>
    </contour>
    <contour>
      <point x="98" y="131" type="line"/>
      <point x="117" y="133" type="line"/>
      <point x="280" y="543" type="line"/>
      <point x="259" y="543" type="line"/>
    </contour>
    <contour>
      <point x="78" y="153" type="line"/>
      <point x="96" y="145" type="line"/>
      <point x="201" y="431" type="line"/>
      <point x="180" y="436" type="line"/>
    </contour>
    <contour>
      <point x="221" y="181" type="line"/>
      <point x="241" y="178" type="line"/>
      <point x="325" y="455" type="line"/>
      <point x="305" y="460" type="line"/>
    </contour>
    <contour>
      <point x="117" y="127" type="line"/>
      <point x="241" y="178" type="line"/>
      <point x="228" y="193" type="line"/>
      <point x="109" y="142" type="line"/>
    </contour>
    <contour>
      <point x="242" y="506" type="line"/>
      <point x="180" y="436" type="line"/>
      <point x="191" y="418" type="line"/>
      <point x="249" y="492" type="line"/>
    </contour>
    <contour>
      <point x="188" y="0" type="line"/>
      <point x="198" y="16" type="line"/>
      <point x="178" y="32" type="line"/>
      <point x="166" y="17" type="line"/>
    </contour>
    <contour>
      <point x="409" y="524" type="line"/>
      <point x="391" y="509" type="line"/>
      <point x="465" y="448" type="line"/>
      <point x="483" y="461" type="line"/>
    </contour>
    <contour>
      <point x="272" y="600" type="line"/>
      <point x="242" y="514" type="line"/>
      <point x="257" y="505" type="line"/>
      <point x="293" y="600" type="line"/>
    </contour>
    <contour>
      <point x="281" y="600" type="line"/>
      <point x="135" y="600" type="line"/>
      <point x="135" y="582" type="line"/>
      <point x="281" y="582" type="line"/>
    </contour>
    <contour>
      <point x="243" y="526" type="line"/>
      <point x="229" y="512" type="line"/>
      <point x="311" y="441" type="line"/>
      <point x="325" y="455" type="line"/>
    </contour>
    <contour>
      <point x="278" y="581" type="line"/>
      <point x="446" y="581" type="line"/>
      <point x="463" y="600" type="line"/>
      <point x="288" y="600" type="line"/>
    </contour>
    <contour>
      <point x="391" y="509" type="line"/>
      <point x="412" y="504" type="line"/>
      <point x="471" y="600" type="line"/>
      <point x="449" y="600" type="line"/>
    </contour>
    <contour>
      <point x="409" y="524" type="line"/>
      <point x="265" y="497" type="line"/>
      <point x="273" y="483" type="line"/>
      <point x="412" y="507" type="line"/>
    </contour>
    <contour>
      <point x="253" y="524" type="line"/>
      <point x="271" y="539" type="line"/>
      <point x="292" y="600" type="line"/>
      <point x="272" y="585" type="line"/>
    </contour>
    <contour>
      <point x="264" y="523" type="line"/>
      <point x="459" y="584" type="line"/>
      <point x="453" y="600" type="line"/>
      <point x="257" y="538" type="line"/>
    </contour>
    <contour>
      <point x="281" y="600" type="line"/>
      <point x="271" y="584" type="line"/>
      <point x="278" y="575" type="line"/>
      <point x="290" y="589" type="line"/>
    </contour>
  </outline>
</glyph>
<glyph name="Thorn" format="2">
  <advance width="515"/>
  <unicode hex="00DE"/>
  <outline>
    <contour>
      <point x="5" y="599" type="line"/>
      <point x="5" y="0" type="line"/>
      <point x="25" y="0" type="line"/>
      <point x="25" y="599" type="line"/>
    </contour>
    <contour>
      <point x="195" y="127" type="line"/>
      <point x="195" y="0" type="line"/>
      <point x="215" y="0" type="line"/>
      <point x="215" y="127" type="line"/>
    </contour>
    <contour>
      <point x="208" y="20" type="line"/>
      <point x="10" y="20" type="line"/>
      <point x="9" y="0" type="line"/>
      <point x="208" y="0" type="line"/>
    </contour>
    <contour>
      <point x="380" y="138" type="line"/>
      <point x="195" y="138" type="line"/>
      <point x="195" y="118" type="line"/>
      <point x="380" y="118" type="line"/>
    </contour>
    <contour>
      <point x="378" y="500" type="line"/>
      <point x="208" y="500" type="line"/>
      <point x="208" y="480" type="line"/>
      <point x="378" y="480" type="line"/>
    </contour>
    <contour>
      <point x="194" y="351" type="line"/>
      <point x="194" y="265" type="line"/>
      <point x="213" y="265" type="line"/>
      <point x="213" y="351" type="line"/>
    </contour>
    <contour>
      <point x="338" y="359" type="line"/>
      <point x="338" y="260" type="line"/>
      <point x="357" y="260" type="line"/>
      <point x="357" y="359" type="line"/>
    </contour>
    <contour>
      <point x="18" y="0" type="line"/>
      <point x="67" y="112" type="line"/>
      <point x="54" y="125" type="line"/>
      <point x="5" y="13" type="line"/>
    </contour>
    <contour>
      <point x="202" y="0" type="line"/>
      <point x="215" y="13" type="line"/>
      <point x="70" y="125" type="line"/>
      <point x="57" y="112" type="line"/>
    </contour>
    <contour>
      <point x="52" y="110" type="line"/>
      <point x="72" y="110" type="line"/>
      <point x="72" y="505" type="line"/>
      <point x="52" y="508" type="line"/>
    </contour>
    <contour>
      <point x="206" y="112" type="line"/>
      <point x="219" y="130" type="line"/>
      <point x="75" y="208" type="line"/>
      <point x="66" y="188" type="line"/>
    </contour>
    <contour>
      <point x="247" y="408" type="line"/>
      <point x="270" y="402" type="line"/>
      <point x="380" y="485" type="line"/>
      <point x="365" y="495" type="line"/>
    </contour>
    <contour>
      <point x="256" y="402" type="line"/>
      <point x="349" y="344" type="line"/>
      <point x="357" y="359" type="line"/>
      <point x="271" y="417" type="line"/>
    </contour>
    <contour>
      <point x="363" y="484" type="line"/>
      <point x="497" y="385" type="line"/>
      <point x="510" y="401" type="line"/>
      <point x="378" y="500" type="line"/>
    </contour>
    <contour>
      <point x="346" y="346" type="line"/>
      <point x="507" y="385" type="line"/>
      <point x="497" y="399" type="line"/>
      <point x="335" y="361" type="line"/>
    </contour>
    <contour>
      <point x="488" y="401" type="line"/>
      <point x="488" y="217" type="line"/>
      <point x="510" y="217" type="line"/>
      <point x="510" y="401" type="line"/>
    </contour>
    <contour>
      <point x="365" y="134" type="line"/>
      <point x="380" y="118" type="line"/>
      <point x="510" y="217" type="line"/>
      <point x="499" y="233" type="line"/>
    </contour>
    <contour>
      <point x="343" y="270" type="line"/>
      <point x="333" y="256" type="line"/>
      <point x="502" y="213" type="line"/>
      <point x="502" y="232" type="line"/>
    </contour>
    <contour>
      <point x="243" y="204" type="line"/>
      <point x="373" y="120" type="line"/>
      <point x="383" y="137" type="line"/>
      <point x="265" y="213" type="line"/>
    </contour>
    <contour>
      <point x="257" y="214" type="line"/>
      <point x="269" y="199" type="line"/>
      <point x="349" y="252" type="line"/>
      <point x="342" y="267" type="line"/>
    </contour>
    <contour>
      <point x="273" y="215" type="line"/>
      <point x="72" y="215" type="line"/>
      <point x="72" y="195" type="line"/>
      <point x="273" y="195" type="line"/>
    </contour>
    <contour>
      <point x="271" y="417" type="line"/>
      <point x="66" y="417" type="line"/>
      <point x="66" y="397" type="line"/>
      <point x="271" y="397" type="line"/>
    </contour>
    <contour>
      <point x="196" y="278" type="line"/>
      <point x="60" y="213" type="line"/>
      <point x="71" y="197" type="line"/>
      <point x="216" y="270" type="line"/>
    </contour>
    <contour>
      <point x="262" y="275" type="line"/>
      <point x="255" y="203" type="line"/>
      <point x="274" y="217" type="line"/>
      <point x="281" y="276" type="line"/>
    </contour>
    <contour>
      <point x="286" y="281" type="line"/>
      <point x="203" y="281" type="line"/>
      <point x="203" y="264" type="line"/>
      <point x="280" y="264" type="line"/>
    </contour>
    <contour>
      <point x="268" y="351" type="line"/>
      <point x="194" y="351" type="line"/>
      <point x="194" y="332" type="line"/>
      <point x="271" y="332" type="line"/>
    </contour>
    <contour>
      <point x="263" y="337" type="line"/>
      <point x="282" y="340" type="line"/>
      <point x="276" y="406" type="line"/>
      <point x="257" y="410" type="line"/>
    </contour>
    <contour>
      <point x="287" y="321" type="line"/>
      <point x="287" y="284" type="line"/>
      <point x="306" y="284" type="line"/>
      <point x="306" y="320" type="line"/>
    </contour>
    <contour>
      <point x="300" y="306" type="line"/>
      <point x="354" y="348" type="line"/>
      <point x="345" y="364" type="line"/>
      <point x="295" y="328" type="line"/>
    </contour>
    <contour>
      <point x="295" y="301" type="line"/>
      <point x="283" y="285" type="line"/>
      <point x="345" y="252" type="line"/>
      <point x="353" y="271" type="line"/>
    </contour>
    <contour>
      <point x="264" y="270" type="line"/>
      <point x="277" y="257" type="line"/>
      <point x="309" y="289" type="line"/>
      <point x="295" y="301" type="line"/>
    </contour>
    <contour>
      <point x="264" y="334" type="line"/>
      <point x="293" y="307" type="line"/>
      <point x="306" y="320" type="line"/>
      <point x="279" y="348" type="line"/>
    </contour>
    <contour>
      <point x="57" y="492" type="line"/>
      <point x="65" y="514" type="line"/>
      <point x="31" y="588" type="line"/>
      <point x="15" y="575" type="line"/>
    </contour>
    <contour>
      <point x="200" y="600" type="line"/>
      <point x="5" y="600" type="line"/>
      <point x="5" y="580" type="line"/>
      <point x="200" y="580" type="line"/>
    </contour>
    <contour>
      <point x="60" y="492" type="line"/>
      <point x="201" y="575" type="line"/>
      <point x="185" y="588" type="line"/>
      <point x="52" y="514" type="line"/>
    </contour>
    <contour>
      <point x="207" y="330" type="line"/>
      <point x="214" y="346" type="line"/>
      <point x="66" y="411" type="line"/>
      <point x="57" y="391" type="line"/>
    </contour>
    <contour>
      <point x="195" y="600" type="line"/>
      <point x="195" y="480" type="line"/>
      <point x="215" y="480" type="line"/>
      <point x="215" y="600" type="line"/>
    </contour>
    <contour>
      <point x="196" y="488" type="line"/>
      <point x="60" y="423" type="line"/>
      <point x="71" y="407" type="line"/>
      <point x="216" y="480" type="line"/>
    </contour>
  </outline>
</glyph>
<glyph name="OE" format="2">
  <advance width="700"/>
  <unicode hex="0152"/>
  <anchor x="445" y="0" name="bottom"/>
  <anchor x="633" y="10" name="ogonek"/>
  <anchor x="445" y="600" name="top"/>
  <anchor x="230" y="600" name="topleft"/>
  <outline>
    <contour>
      <point x="155" y="0" type="line"/>
      <point x="169" y="14" type="line"/>
      <point x="19" y="164" type="line"/>
      <point x="5" y="150" type="line"/>
    </contour>
    <contour>
      <point x="25" y="147" type="line"/>
      <point x="58" y="169" type="line"/>
      <point x="52" y="188" type="line"/>
      <point x="19" y="166" type="line"/>
    </contour>
    <contour>
      <point x="172" y="9" type="line"/>
      <point x="145" y="98" type="line"/>
      <point x="122" y="106" type="line"/>
      <point x="152" y="18" type="line"/>
    </contour>
    <contour>
      <point x="155" y="0" type="line"/>
      <point x="275" y="0" type="line"/>
      <point x="275" y="18" type="line"/>
      <point x="155" y="18" type="line"/>
    </contour>
    <contour>
      <point x="130" y="89" type="line"/>
      <point x="144" y="103" type="line"/>
      <point x="59" y="189" type="line"/>
      <point x="45" y="175" type="line"/>
    </contour>
    <contour>
      <point x="5" y="150" type="line"/>
      <point x="25" y="150" type="line"/>
      <point x="25" y="460" type="line"/>
      <point x="5" y="460" type="line"/>
    </contour>
    <contour>
      <point x="60" y="171" type="line"/>
      <point x="205" y="188" type="line"/>
      <point x="199" y="206" type="line"/>
      <point x="54" y="189" type="line"/>
    </contour>
    <contour>
      <point x="130" y="89" type="line"/>
      <point x="234" y="89" type="line"/>
      <point x="234" y="107" type="line"/>
      <point x="130" y="107" type="line"/>
    </contour>
    <contour>
      <point x="140" y="93" type="line"/>
      <point x="232" y="162" type="line"/>
      <point x="219" y="172" type="line"/>
      <point x="127" y="103" type="line"/>
    </contour>
    <contour>
      <point x="45" y="175" type="line"/>
      <point x="65" y="175" type="line"/>
      <point x="65" y="435" type="line"/>
      <point x="45" y="435" type="line"/>
    </contour>
    <contour>
      <point x="217" y="159" type="line"/>
      <point x="231" y="173" type="line"/>
      <point x="199" y="204" type="line"/>
      <point x="185" y="190" type="line"/>
    </contour>
    <contour>
      <point x="217" y="159" type="line"/>
      <point x="243" y="159" type="line"/>
      <point x="243" y="177" type="line"/>
      <point x="217" y="177" type="line"/>
    </contour>
    <contour>
      <point x="52" y="423" type="line"/>
      <point x="58" y="441" type="line"/>
      <point x="25" y="463" type="line"/>
      <point x="19" y="445" type="line"/>
    </contour>
    <contour>
      <point x="185" y="190" type="line"/>
      <point x="205" y="190" type="line"/>
      <point x="205" y="405" type="line"/>
      <point x="185" y="405" type="line"/>
    </contour>
    <contour>
      <point x="199" y="389" type="line"/>
      <point x="205" y="407" type="line"/>
      <point x="65" y="437" type="line"/>
      <point x="59" y="419" type="line"/>
    </contour>
    <contour>
      <point x="19" y="446" type="line"/>
      <point x="149" y="586" type="line"/>
      <point x="135" y="600" type="line"/>
      <point x="5" y="460" type="line"/>
    </contour>
    <contour>
      <point x="59" y="421" type="line"/>
      <point x="154" y="512" type="line"/>
      <point x="140" y="526" type="line"/>
      <point x="45" y="435" type="line"/>
    </contour>
    <contour>
      <point x="199" y="391" type="line"/>
      <point x="231" y="422" type="line"/>
      <point x="217" y="436" type="line"/>
      <point x="185" y="405" type="line"/>
    </contour>
    <contour>
      <point x="217" y="418" type="line"/>
      <point x="253" y="418" type="line"/>
      <point x="253" y="436" type="line"/>
      <point x="217" y="436" type="line"/>
    </contour>
    <contour>
      <point x="217" y="418" type="line"/>
      <point x="232" y="428" type="line"/>
      <point x="150" y="520" type="line"/>
      <point x="135" y="510" type="line"/>
    </contour>
    <contour>
      <point x="131" y="509" type="line"/>
      <point x="148" y="515" type="line"/>
      <point x="153" y="589" type="line"/>
      <point x="136" y="583" type="line"/>
    </contour>
    <contour>
      <point x="135" y="580" type="line"/>
      <point x="283" y="580" type="line"/>
      <point x="281" y="600" type="line"/>
      <point x="135" y="600" type="line"/>
    </contour>
    <contour>
      <point x="295" y="97" type="line"/>
      <point x="315" y="97" type="line"/>
      <point x="315" y="521" type="line"/>
      <point x="295" y="521" type="line"/>
    </contour>
    <contour>
      <point x="445" y="220" type="line"/>
      <point x="458" y="237" type="line"/>
      <point x="310" y="327" type="line"/>
      <point x="298" y="311" type="line"/>
    </contour>
    <contour>
      <point x="445" y="225" type="line"/>
      <point x="595" y="225" type="line"/>
      <point x="595" y="245" type="line"/>
      <point x="439" y="245" type="line"/>
    </contour>
    <contour>
      <point x="310" y="311" type="line"/>
      <point x="458" y="368" type="line"/>
      <point x="445" y="387" type="line"/>
      <point x="298" y="327" type="line"/>
    </contour>
    <contour>
      <point x="297" y="506" type="line"/>
      <point x="314" y="519" type="line"/>
      <point x="282" y="600" type="line"/>
      <point x="265" y="587" type="line"/>
    </contour>
    <contour>
      <point x="315" y="307" type="line"/>
      <point x="455" y="307" type="line"/>
      <point x="455" y="327" type="line"/>
      <point x="315" y="327" type="line"/>
    </contour>
    <contour>
      <point x="445" y="365" type="line"/>
      <point x="595" y="365" type="line"/>
      <point x="595" y="385" type="line"/>
      <point x="445" y="385" type="line"/>
    </contour>
    <contour>
      <point x="585" y="229" type="line"/>
      <point x="598" y="245" type="line"/>
      <point x="450" y="327" type="line"/>
      <point x="435" y="312" type="line"/>
    </contour>
    <contour>
      <point x="452" y="307" type="line"/>
      <point x="598" y="370" type="line"/>
      <point x="585" y="385" type="line"/>
      <point x="435" y="321" type="line"/>
    </contour>
    <contour>
      <point x="585" y="225" type="line"/>
      <point x="605" y="225" type="line"/>
      <point x="605" y="385" type="line"/>
      <point x="585" y="385" type="line"/>
    </contour>
    <contour>
      <point x="435" y="172" type="line"/>
      <point x="455" y="172" type="line"/>
      <point x="455" y="238" type="line"/>
      <point x="435" y="238" type="line"/>
    </contour>
    <contour>
      <point x="267" y="0" type="line"/>
      <point x="685" y="0" type="line"/>
      <point x="685" y="20" type="line"/>
      <point x="267" y="20" type="line"/>
    </contour>
    <contour>
      <point x="316" y="95" type="line"/>
      <point x="454" y="165" type="line"/>
      <point x="441" y="180" type="line"/>
      <point x="301" y="106" type="line"/>
    </contour>
    <contour>
      <point x="301" y="87" type="line"/>
      <point x="535" y="87" type="line"/>
      <point x="535" y="107" type="line"/>
      <point x="301" y="107" type="line"/>
    </contour>
    <contour>
      <point x="441" y="160" type="line"/>
      <point x="685" y="160" type="line"/>
      <point x="685" y="180" type="line"/>
      <point x="441" y="180" type="line"/>
    </contour>
    <contour>
      <point x="675" y="9" type="line"/>
      <point x="688" y="22" type="line"/>
      <point x="530" y="107" type="line"/>
      <point x="515" y="95" type="line"/>
    </contour>
    <contour>
      <point x="532" y="86" type="line"/>
      <point x="688" y="164" type="line"/>
      <point x="675" y="180" type="line"/>
      <point x="515" y="96" type="line"/>
    </contour>
    <contour>
      <point x="675" y="0" type="line"/>
      <point x="695" y="0" type="line"/>
      <point x="695" y="180" type="line"/>
      <point x="675" y="180" type="line"/>
    </contour>
    <contour>
      <point x="275" y="600" type="line"/>
      <point x="275" y="580" type="line"/>
      <point x="685" y="580" type="line"/>
      <point x="685" y="600" type="line"/>
    </contour>
    <contour>
      <point x="316" y="515" type="line"/>
      <point x="301" y="504" type="line"/>
      <point x="441" y="420" type="line"/>
      <point x="454" y="435" type="line"/>
    </contour>
    <contour>
      <point x="301" y="523" type="line"/>
      <point x="301" y="503" type="line"/>
      <point x="525" y="503" type="line"/>
      <point x="525" y="523" type="line"/>
    </contour>
    <contour>
      <point x="441" y="440" type="line"/>
      <point x="441" y="420" type="line"/>
      <point x="685" y="420" type="line"/>
      <point x="685" y="440" type="line"/>
    </contour>
    <contour>
      <point x="671" y="593" type="line"/>
      <point x="509" y="519" type="line"/>
      <point x="524" y="505" type="line"/>
      <point x="688" y="580" type="line"/>
    </contour>
    <contour>
      <point x="521" y="520" type="line"/>
      <point x="508" y="507" type="line"/>
      <point x="675" y="427" type="line"/>
      <point x="688" y="442" type="line"/>
    </contour>
    <contour>
      <point x="675" y="600" type="line"/>
      <point x="675" y="420" type="line"/>
      <point x="695" y="420" type="line"/>
      <point x="695" y="600" type="line"/>
    </contour>
    <contour>
      <point x="435" y="372" type="line"/>
      <point x="455" y="372" type="line"/>
      <point x="455" y="438" type="line"/>
      <point x="435" y="438" type="line"/>
    </contour>
    <contour>
      <point x="257" y="418" type="line"/>
      <point x="242" y="510" type="line"/>
      <point x="223" y="520" type="line"/>
      <point x="238" y="428" type="line"/>
    </contour>
    <contour>
      <point x="244" y="509" type="line"/>
      <point x="284" y="580" type="line"/>
      <point x="267" y="586" type="line"/>
      <point x="227" y="515" type="line"/>
    </contour>
    <contour>
      <point x="222" y="99" type="line"/>
      <point x="241" y="108" type="line"/>
      <point x="249" y="177" type="line"/>
      <point x="229" y="167" type="line"/>
    </contour>
    <contour>
      <point x="263" y="9" type="line"/>
      <point x="280" y="18" type="line"/>
      <point x="245" y="95" type="line"/>
      <point x="315" y="175" type="line"/>
      <point x="301" y="189" type="line"/>
      <point x="222" y="100" type="line"/>
    </contour>
    <contour>
      <point x="300" y="170" type="line"/>
      <point x="306" y="187" type="line"/>
      <point x="261" y="204" type="line"/>
      <point x="255" y="188" type="line"/>
    </contour>
    <contour>
      <point x="255" y="190" type="line"/>
      <point x="275" y="190" type="line"/>
      <point x="275" y="405" type="line"/>
      <point x="255" y="405" type="line"/>
    </contour>
    <contour>
      <point x="266" y="385" type="line"/>
      <point x="301" y="418" type="line"/>
      <point x="295" y="437" type="line"/>
      <point x="260" y="404" type="line"/>
    </contour>
    <contour>
      <point x="140" y="508" type="line"/>
      <point x="240" y="508" type="line"/>
      <point x="240" y="526" type="line"/>
      <point x="140" y="526" type="line"/>
    </contour>
    <contour>
      <point x="301" y="421" type="line"/>
      <point x="315" y="435" type="line"/>
      <point x="240" y="526" type="line"/>
      <point x="226" y="512" type="line"/>
    </contour>
    <contour>
      <point x="243" y="159" type="line"/>
      <point x="275" y="190" type="line"/>
      <point x="261" y="204" type="line"/>
      <point x="229" y="173" type="line"/>
    </contour>
    <contour>
      <point x="261" y="391" type="line"/>
      <point x="275" y="405" type="line"/>
      <point x="253" y="436" type="line"/>
      <point x="239" y="422" type="line"/>
    </contour>
    <contour>
      <point x="286" y="9" type="line"/>
      <point x="317" y="98" type="line"/>
      <point x="298" y="107" type="line"/>
      <point x="267" y="18" type="line"/>
    </contour>
  </outline>
</glyph>
<glyph name="endash" format="2">
  <advance width="441"/>
  <unicode hex="2013"/>
  <outline>
    <contour>
      <point x="15" y="264" type="line"/>
      <point x="420" y="264" type="line"/>
      <point x="420" y="282" type="line"/>
      <point x="15" y="282" type="line"/>
    </contour>
    <contour>
      <point x="29" y="264" type="line"/>
      <point x="67" y="300" type="line"/>
      <point x="51" y="313" type="line"/>
      <point x="15" y="278" type="line"/>
    </contour>
    <contour>
      <point x="412" y="264" type="line"/>
      <point x="426" y="278" type="line"/>
      <point x="309" y="314" type="line"/>
      <point x="294" y="300" type="line"/>
    </contour>
    <contour>
      <point x="15" y="264" type="line"/>
      <point x="35" y="264" type="line"/>
      <point x="35" y="349" type="line"/>
      <point x="15" y="349" type="line"/>
    </contour>
    <contour>
      <point x="51" y="296" type="line"/>
      <point x="314" y="296" type="line"/>
      <point x="314" y="319" type="line"/>
      <point x="51" y="319" type="line"/>
    </contour>
    <contour>
      <point x="406" y="264" type="line"/>
      <point x="426" y="264" type="line"/>
      <point x="426" y="349" type="line"/>
      <point x="406" y="349" type="line"/>
    </contour>
    <contour>
      <point x="52" y="300" type="line"/>
      <point x="67" y="314" type="line"/>
      <point x="29" y="349" type="line"/>
      <point x="15" y="335" type="line"/>
    </contour>
    <contour>
      <point x="18" y="331" type="line"/>
      <point x="420" y="331" type="line"/>
      <point x="420" y="349" type="line"/>
      <point x="18" y="349" type="line"/>
    </contour>
    <contour>
      <point x="309" y="300" type="line"/>
      <point x="425" y="335" type="line"/>
      <point x="411" y="349" type="line"/>
      <point x="294" y="314" type="line"/>
    </contour>
  </outline>
</glyph>
<glyph name="emdash" format="2">
  <advance width="641"/>
  <unicode hex="2014"/>
  <outline>
    <contour>
      <point x="15" y="264" type="line"/>
      <point x="620" y="264" type="line"/>
      <point x="620" y="282" type="line"/>
      <point x="15" y="282" type="line"/>
    </contour>
    <contour>
      <point x="29" y="264" type="line"/>
      <point x="67" y="300" type="line"/>
      <point x="51" y="313" type="line"/>
      <point x="15" y="278" type="line"/>
    </contour>
    <contour>
      <point x="612" y="264" type="line"/>
      <point x="626" y="278" type="line"/>
      <point x="509" y="314" type="line"/>
      <point x="494" y="300" type="line"/>
    </contour>
    <contour>
      <point x="15" y="264" type="line"/>
      <point x="35" y="264" type="line"/>
      <point x="35" y="349" type="line"/>
      <point x="15" y="349" type="line"/>
    </contour>
    <contour>
      <point x="51" y="296" type="line"/>
      <point x="514" y="296" type="line"/>
      <point x="514" y="319" type="line"/>
      <point x="51" y="319" type="line"/>
    </contour>
    <contour>
      <point x="606" y="264" type="line"/>
      <point x="626" y="264" type="line"/>
      <point x="626" y="349" type="line"/>
      <point x="606" y="349" type="line"/>
    </contour>
    <contour>
      <point x="52" y="300" type="line"/>
      <point x="67" y="314" type="line"/>
      <point x="29" y="349" type="line"/>
      <point x="15" y="335" type="line"/>
    </contour>
    <contour>
      <point x="18" y="331" type="line"/>
      <point x="620" y="331" type="line"/>
      <point x="620" y="349" type="line"/>
      <point x="18" y="349" type="line"/>
    </contour>
    <contour>
      <point x="509" y="300" type="line"/>
      <point x="625" y="335" type="line"/>
      <point x="611" y="349" type="line"/>
      <point x="494" y="314" type="line"/>
    </contour>
  </outline>
</glyph>
<glyph name="quoteleft" format="2">
  <advance width="192"/>
  <unicode hex="2018"/>
  <outline>
    <contour>
      <point x="162" y="503" type="line"/>
      <point x="30" y="503" type="line"/>
      <point x="30" y="489" type="line"/>
      <point x="162" y="489" type="line"/>
    </contour>
    <contour>
      <point x="151" y="503" type="line"/>
      <point x="57" y="448" type="line"/>
      <point x="64" y="432" type="line"/>
      <point x="162" y="492" type="line"/>
    </contour>
    <contour>
      <point x="42" y="503" type="line"/>
      <point x="30" y="492" type="line"/>
      <point x="55" y="431" type="line"/>
      <point x="62" y="447" type="line"/>
    </contour>
    <contour>
      <point x="162" y="503" type="line"/>
      <point x="146" y="503" type="line"/>
      <point x="146" y="371" type="line"/>
      <point x="162" y="371" type="line"/>
    </contour>
    <contour>
      <point x="64" y="444" type="line"/>
      <point x="54" y="444" type="line"/>
      <point x="54" y="431" type="line"/>
      <point x="64" y="431" type="line"/>
    </contour>
    <contour>
      <point x="46" y="503" type="line"/>
      <point x="30" y="503" type="line"/>
      <point x="30" y="371" type="line"/>
      <point x="46" y="371" type="line"/>
    </contour>
    <contour>
      <point x="63" y="443" type="line"/>
      <point x="56" y="427" type="line"/>
      <point x="151" y="371" type="line"/>
      <point x="162" y="383" type="line"/>
    </contour>
    <contour>
      <point x="160" y="386" type="line"/>
      <point x="30" y="386" type="line"/>
      <point x="30" y="371" type="line"/>
      <point x="160" y="371" type="line"/>
    </contour>
    <contour>
      <point x="55" y="443" type="line"/>
      <point x="31" y="383" type="line"/>
      <point x="42" y="371" type="line"/>
      <point x="62" y="427" type="line"/>
    </contour>
    <contour>
      <point x="162" y="605" type="line"/>
      <point x="146" y="605" type="line"/>
      <point x="146" y="541" type="line"/>
      <point x="162" y="539" type="line"/>
    </contour>
    <contour>
      <point x="152" y="551" type="line"/>
      <point x="99" y="503" type="line"/>
      <point x="113" y="492" type="line"/>
      <point x="162" y="539" type="line"/>
    </contour>
    <contour>
      <point x="150" y="615" type="line"/>
      <point x="30" y="503" type="line"/>
      <point x="41" y="491" type="line"/>
      <point x="162" y="604" type="line"/>
      <point x="162" y="615" type="line"/>
    </contour>
  </outline>
</glyph>
<glyph name="quotesinglbase" format="2">
  <advance width="192"/>
  <unicode hex="201A"/>
  <outline>
    <contour>
      <point x="30" y="67" type="line"/>
      <point x="162" y="67" type="line"/>
      <point x="162" y="81" type="line"/>
      <point x="30" y="81" type="line"/>
    </contour>
    <contour>
      <point x="41" y="67" type="line"/>
      <point x="60" y="122" type="line"/>
      <point x="53" y="138" type="line"/>
      <point x="30" y="78" type="line"/>
    </contour>
    <contour>
      <point x="150" y="67" type="line"/>
      <point x="162" y="78" type="line"/>
      <point x="62" y="139" type="line"/>
      <point x="55" y="123" type="line"/>
    </contour>
    <contour>
      <point x="30" y="67" type="line"/>
      <point x="46" y="67" type="line"/>
      <point x="46" y="199" type="line"/>
      <point x="30" y="199" type="line"/>
    </contour>
    <contour>
      <point x="53" y="126" type="line"/>
      <point x="63" y="126" type="line"/>
      <point x="63" y="139" type="line"/>
      <point x="53" y="139" type="line"/>
    </contour>
    <contour>
      <point x="146" y="67" type="line"/>
      <point x="162" y="67" type="line"/>
      <point x="162" y="199" type="line"/>
      <point x="146" y="199" type="line"/>
    </contour>
    <contour>
      <point x="54" y="127" type="line"/>
      <point x="61" y="143" type="line"/>
      <point x="41" y="199" type="line"/>
      <point x="30" y="187" type="line"/>
    </contour>
    <contour>
      <point x="32" y="184" type="line"/>
      <point x="162" y="184" type="line"/>
      <point x="162" y="199" type="line"/>
      <point x="32" y="199" type="line"/>
    </contour>
    <contour>
      <point x="62" y="127" type="line"/>
      <point x="161" y="187" type="line"/>
      <point x="150" y="199" type="line"/>
      <point x="55" y="143" type="line"/>
    </contour>
    <contour>
      <point x="30" y="-35" type="line"/>
      <point x="46" y="-35" type="line"/>
      <point x="46" y="29" type="line"/>
      <point x="30" y="31" type="line"/>
    </contour>
    <contour>
      <point x="40" y="19" type="line"/>
      <point x="93" y="67" type="line"/>
      <point x="79" y="78" type="line"/>
      <point x="30" y="31" type="line"/>
    </contour>
    <contour>
      <point x="42" y="-45" type="line"/>
      <point x="162" y="67" type="line"/>
      <point x="151" y="79" type="line"/>
      <point x="30" y="-34" type="line"/>
      <point x="30" y="-45" type="line"/>
    </contour>
  </outline>
</glyph>
<glyph name="brevecomb.case" format="2">
  <anchor x="109" y="600" name="_top"/>
  <anchor x="109" y="715" name="top"/>
  <outline>
    <contour>
      <point x="73" y="715" type="line"/>
      <point x="73" y="691" type="line"/>
      <point x="86" y="681" type="line"/>
      <point x="86" y="715" type="line"/>
    </contour>
    <contour>
      <point x="14" y="700" type="line"/>
      <point x="77" y="700" type="line"/>
      <point x="77" y="715" type="line"/>
      <point x="14" y="715" type="line"/>
    </contour>
    <contour>
      <point x="27" y="672" type="line"/>
      <point x="83" y="703" type="line"/>
      <point x="77" y="715" type="line"/>
      <point x="15" y="681" type="line"/>
    </contour>
    <contour>
      <point x="17" y="672" type="line"/>
      <point x="29" y="681" type="line"/>
      <point x="19" y="715" type="line"/>
      <point x="9" y="703" type="line"/>
    </contour>
    <contour>
      <point x="21" y="715" type="line"/>
      <point x="5" y="715" type="line"/>
      <point x="5" y="684" type="line"/>
      <point x="21" y="684" type="line"/>
    </contour>
    <contour>
      <point x="96" y="657" type="line"/>
      <point x="106" y="670" type="line"/>
      <point x="83" y="703" type="line"/>
      <point x="73" y="691" type="line"/>
    </contour>
    <contour>
      <point x="41" y="637" type="line"/>
      <point x="56" y="642" type="line"/>
      <point x="27" y="686" type="line"/>
      <point x="14" y="678" type="line"/>
    </contour>
    <contour>
      <point x="38" y="635" type="line"/>
      <point x="47" y="648" type="line"/>
      <point x="15" y="696" type="line"/>
      <point x="5" y="684" type="line"/>
    </contour>
    <contour>
      <point x="82" y="618" type="line"/>
      <point x="89" y="632" type="line"/>
      <point x="46" y="649" type="line"/>
      <point x="38" y="635" type="line"/>
    </contour>
    <contour>
      <point x="73" y="631" type="line"/>
      <point x="111" y="662" type="line"/>
      <point x="102" y="674" type="line"/>
      <point x="61" y="640" type="line"/>
    </contour>
    <contour>
      <point x="140" y="715" type="line"/>
      <point x="127" y="715" type="line"/>
      <point x="127" y="681" type="line"/>
      <point x="140" y="691" type="line"/>
    </contour>
    <contour>
      <point x="199" y="700" type="line"/>
      <point x="199" y="715" type="line"/>
      <point x="136" y="715" type="line"/>
      <point x="136" y="700" type="line"/>
    </contour>
    <contour>
      <point x="138" y="672" type="line"/>
      <point x="150" y="681" type="line"/>
      <point x="136" y="715" type="line"/>
      <point x="127" y="696" type="line"/>
    </contour>
    <contour>
      <point x="148" y="672" type="line"/>
      <point x="204" y="703" type="line"/>
      <point x="194" y="715" type="line"/>
      <point x="136" y="681" type="line"/>
    </contour>
    <contour>
      <point x="192" y="715" type="line"/>
      <point x="192" y="684" type="line"/>
      <point x="208" y="684" type="line"/>
      <point x="208" y="715" type="line"/>
    </contour>
    <contour>
      <point x="117" y="657" type="line"/>
      <point x="140" y="691" type="line"/>
      <point x="130" y="703" type="line"/>
      <point x="107" y="670" type="line"/>
    </contour>
    <contour>
      <point x="121" y="628" type="line"/>
      <point x="151" y="674" type="line"/>
      <point x="141" y="686" type="line"/>
      <point x="106" y="633" type="line"/>
    </contour>
    <contour>
      <point x="175" y="635" type="line"/>
      <point x="208" y="684" type="line"/>
      <point x="198" y="696" type="line"/>
      <point x="166" y="648" type="line"/>
    </contour>
    <contour>
      <point x="131" y="618" type="line"/>
      <point x="175" y="635" type="line"/>
      <point x="167" y="649" type="line"/>
      <point x="124" y="632" type="line"/>
    </contour>
    <contour>
      <point x="106" y="631" type="line"/>
      <point x="122" y="640" type="line"/>
      <point x="114" y="674" type="line"/>
      <point x="102" y="662" type="line"/>
    </contour>
    <contour>
      <point x="82" y="618" type="line"/>
      <point x="132" y="618" type="line"/>
      <point x="138" y="634" type="line"/>
      <point x="82" y="634" type="line"/>
    </contour>
    <contour>
      <point x="112" y="657" type="line"/>
      <point x="112" y="671" type="line"/>
      <point x="103" y="671" type="line"/>
      <point x="103" y="657" type="line"/>
    </contour>
  </outline>
</glyph>
<glyph name="caroncomb.case" format="2">
  <anchor x="145" y="600" name="_top"/>
  <anchor x="145" y="802" name="top"/>
  <outline>
    <contour>
      <point x="25" y="720" type="line"/>
      <point x="5" y="720" type="line"/>
      <point x="77" y="626" type="line"/>
      <point x="97" y="626" type="line"/>
    </contour>
    <contour>
      <point x="271" y="720" type="line"/>
      <point x="183" y="720" type="line"/>
      <point x="183" y="705" type="line"/>
      <point x="265" y="705" type="line"/>
    </contour>
    <contour>
      <point x="285" y="720" type="line"/>
      <point x="265" y="720" type="line"/>
      <point x="193" y="626" type="line"/>
      <point x="213" y="626" type="line"/>
    </contour>
    <contour>
      <point x="260" y="714" type="line"/>
      <point x="172" y="678" type="line"/>
      <point x="178" y="667" type="line"/>
      <point x="264" y="701" type="line"/>
    </contour>
    <contour>
      <point x="188" y="719" type="line"/>
      <point x="175" y="704" type="line"/>
      <point x="169" y="670" type="line"/>
      <point x="182" y="679" type="line"/>
    </contour>
    <contour>
      <point x="196" y="720" type="line"/>
      <point x="176" y="720" type="line"/>
      <point x="142" y="677" type="line"/>
      <point x="149" y="660" type="line"/>
    </contour>
    <contour>
      <point x="148" y="679" type="line"/>
      <point x="142" y="658" type="line"/>
      <point x="146" y="626" type="line"/>
      <point x="155" y="638" type="line"/>
    </contour>
    <contour>
      <point x="114" y="720" type="line"/>
      <point x="94" y="720" type="line"/>
      <point x="138" y="664" type="line"/>
      <point x="148" y="676" type="line"/>
    </contour>
    <contour>
      <point x="208" y="639" type="line"/>
      <point x="133" y="639" type="line"/>
      <point x="133" y="626" type="line"/>
      <point x="208" y="626" type="line"/>
    </contour>
    <contour>
      <point x="150" y="639" type="line"/>
      <point x="83" y="639" type="line"/>
      <point x="83" y="626" type="line"/>
      <point x="150" y="626" type="line"/>
    </contour>
    <contour>
      <point x="107" y="720" type="line"/>
      <point x="19" y="720" type="line"/>
      <point x="25" y="705" type="line"/>
      <point x="107" y="705" type="line"/>
    </contour>
    <contour>
      <point x="102" y="719" type="line"/>
      <point x="56" y="684" type="line"/>
      <point x="65" y="673" type="line"/>
      <point x="111" y="706" type="line"/>
    </contour>
    <contour>
      <point x="189" y="677" type="line"/>
      <point x="172" y="678" type="line"/>
      <point x="134" y="626" type="line"/>
      <point x="152" y="626" type="line"/>
    </contour>
    <contour>
      <point x="145" y="679" type="line"/>
      <point x="112" y="638" type="line"/>
      <point x="120" y="626" type="line"/>
      <point x="145" y="658" type="line"/>
    </contour>
    <contour>
      <point x="59" y="683" type="line"/>
      <point x="47" y="682" type="line"/>
      <point x="82" y="626" type="line"/>
      <point x="98" y="626" type="line"/>
    </contour>
    <contour>
      <point x="30" y="712" type="line"/>
      <point x="26" y="701" type="line"/>
      <point x="61" y="673" type="line"/>
      <point x="63" y="680" type="line"/>
    </contour>
  </outline>
</glyph>
<glyph name="circumflexcomb.case" format="2">
  <anchor x="145" y="600" name="_top"/>
  <anchor x="145" y="802" name="top"/>
  <outline>
    <contour>
      <point x="265" y="626" type="line"/>
      <point x="285" y="626" type="line"/>
      <point x="213" y="720" type="line"/>
      <point x="193" y="720" type="line"/>
    </contour>
    <contour>
      <point x="19" y="626" type="line"/>
      <point x="107" y="626" type="line"/>
      <point x="107" y="641" type="line"/>
      <point x="25" y="641" type="line"/>
    </contour>
    <contour>
      <point x="5" y="626" type="line"/>
      <point x="25" y="626" type="line"/>
      <point x="97" y="720" type="line"/>
      <point x="77" y="720" type="line"/>
    </contour>
    <contour>
      <point x="30" y="634" type="line"/>
      <point x="63" y="667" type="line"/>
      <point x="60" y="669" type="line"/>
      <point x="26" y="645" type="line"/>
    </contour>
    <contour>
      <point x="102" y="627" type="line"/>
      <point x="112" y="639" type="line"/>
      <point x="63" y="672" type="line"/>
      <point x="55" y="660" type="line"/>
    </contour>
    <contour>
      <point x="94" y="626" type="line"/>
      <point x="114" y="626" type="line"/>
      <point x="148" y="674" type="line"/>
      <point x="138" y="687" type="line"/>
    </contour>
    <contour>
      <point x="145" y="667" type="line"/>
      <point x="145" y="688" type="line"/>
      <point x="122" y="720" type="line"/>
      <point x="113" y="708" type="line"/>
    </contour>
    <contour>
      <point x="176" y="626" type="line"/>
      <point x="196" y="626" type="line"/>
      <point x="145" y="692" type="line"/>
      <point x="142" y="670" type="line"/>
    </contour>
    <contour>
      <point x="82" y="707" type="line"/>
      <point x="148" y="707" type="line"/>
      <point x="148" y="720" type="line"/>
      <point x="82" y="720" type="line"/>
    </contour>
    <contour>
      <point x="136" y="707" type="line"/>
      <point x="207" y="707" type="line"/>
      <point x="207" y="720" type="line"/>
      <point x="136" y="720" type="line"/>
    </contour>
    <contour>
      <point x="183" y="626" type="line"/>
      <point x="271" y="626" type="line"/>
      <point x="265" y="641" type="line"/>
      <point x="183" y="641" type="line"/>
    </contour>
    <contour>
      <point x="194" y="627" type="line"/>
      <point x="187" y="664" type="line"/>
      <point x="170" y="674" type="line"/>
      <point x="177" y="640" type="line"/>
    </contour>
    <contour>
      <point x="45" y="657" type="line"/>
      <point x="57" y="663" type="line"/>
      <point x="98" y="720" type="line"/>
      <point x="79" y="720" type="line"/>
    </contour>
    <contour>
      <point x="150" y="667" type="line"/>
      <point x="152" y="708" type="line"/>
      <point x="142" y="720" type="line"/>
      <point x="140" y="683" type="line"/>
    </contour>
    <contour>
      <point x="176" y="663" type="line"/>
      <point x="192" y="664" type="line"/>
      <point x="151" y="720" type="line"/>
      <point x="135" y="720" type="line"/>
    </contour>
    <contour>
      <point x="260" y="634" type="line"/>
      <point x="264" y="645" type="line"/>
      <point x="178" y="679" type="line"/>
      <point x="172" y="668" type="line"/>
    </contour>
  </outline>
</glyph>
